  0
SECTION
  2
BLOCKS
  0
ENDSEC
  0
SECTION
  2
ENTITIES
  0
LINE
  8
0
 10
25.4369
 20
-36.9114
 11
26.0451
 21
-36.7553
  0
LINE
  8
0
 10
26.0451
 20
-36.7553
 11
26.6289
 21
-36.5241
  0
LINE
  8
0
 10
26.6289
 20
-36.5241
 11
27.1791
 21
-36.2216
  0
LINE
  8
0
 10
27.1791
 20
-36.2216
 11
27.6871
 21
-35.8526
  0
LINE
  8
0
 10
27.6871
 20
-35.8526
 11
28.1448
 21
-35.4227
  0
LINE
  8
0
 10
28.1448
 20
-35.4227
 11
28.5451
 21
-34.9389
  0
LINE
  8
0
 10
28.5451
 20
-34.9389
 11
28.8815
 21
-34.4088
  0
LINE
  8
0
 10
28.8815
 20
-34.4088
 11
29.1489
 21
-33.8406
  0
LINE
  8
0
 10
29.1489
 20
-33.8406
 11
29.3429
 21
-33.2434
  0
LINE
  8
0
 10
29.3429
 20
-33.2434
 11
29.4606
 21
-32.6267
  0
LINE
  8
0
 10
29.4606
 20
-32.6267
 11
29.5
 21
-32
  0
LINE
  8
0
 10
29.5
 20
-32
 11
29.5
 21
32
  0
LINE
  8
0
 10
29.5
 20
32
 11
29.4606
 21
32.6267
  0
LINE
  8
0
 10
29.4606
 20
32.6267
 11
29.3429
 21
33.2434
  0
LINE
  8
0
 10
29.3429
 20
33.2434
 11
29.1489
 21
33.8406
  0
LINE
  8
0
 10
29.1489
 20
33.8406
 11
28.8815
 21
34.4088
  0
LINE
  8
0
 10
28.8815
 20
34.4088
 11
28.5451
 21
34.9389
  0
LINE
  8
0
 10
28.5451
 20
34.9389
 11
28.1448
 21
35.4227
  0
LINE
  8
0
 10
28.1448
 20
35.4227
 11
27.6871
 21
35.8526
  0
LINE
  8
0
 10
27.6871
 20
35.8526
 11
27.1791
 21
36.2216
  0
LINE
  8
0
 10
27.1791
 20
36.2216
 11
26.6289
 21
36.5241
  0
LINE
  8
0
 10
26.6289
 20
36.5241
 11
26.0451
 21
36.7553
  0
LINE
  8
0
 10
26.0451
 20
36.7553
 11
25.4369
 21
36.9114
  0
LINE
  8
0
 10
25.4369
 20
36.9114
 11
24.8139
 21
36.9901
  0
LINE
  8
0
 10
24.8139
 20
36.9901
 11
5.5
 21
36.9901
  0
LINE
  8
0
 10
5.5
 20
36.9901
 11
5.5
 21
31
  0
LINE
  8
0
 10
5.5
 20
31
 11
-5.5
 21
31
  0
LINE
  8
0
 10
-5.5
 20
31
 11
-5.5
 21
36.9901
  0
LINE
  8
0
 10
-5.5
 20
36.9901
 11
-24.8139
 21
36.9901
  0
LINE
  8
0
 10
-24.8139
 20
36.9901
 11
-25.4369
 21
36.9114
  0
LINE
  8
0
 10
-25.4369
 20
36.9114
 11
-26.0451
 21
36.7553
  0
LINE
  8
0
 10
-26.0451
 20
36.7553
 11
-26.6289
 21
36.5241
  0
LINE
  8
0
 10
-26.6289
 20
36.5241
 11
-27.1791
 21
36.2216
  0
LINE
  8
0
 10
-27.1791
 20
36.2216
 11
-27.6871
 21
35.8526
  0
LINE
  8
0
 10
-27.6871
 20
35.8526
 11
-28.1448
 21
35.4227
  0
LINE
  8
0
 10
-28.1448
 20
35.4227
 11
-28.5451
 21
34.9389
  0
LINE
  8
0
 10
-28.5451
 20
34.9389
 11
-28.8815
 21
34.4088
  0
LINE
  8
0
 10
-28.8815
 20
34.4088
 11
-29.1489
 21
33.8406
  0
LINE
  8
0
 10
-29.1489
 20
33.8406
 11
-29.3429
 21
33.2434
  0
LINE
  8
0
 10
-29.3429
 20
33.2434
 11
-29.4606
 21
32.6267
  0
LINE
  8
0
 10
-29.4606
 20
32.6267
 11
-29.5
 21
32
  0
LINE
  8
0
 10
-29.5
 20
32
 11
-29.5
 21
-32
  0
LINE
  8
0
 10
-29.5
 20
-32
 11
-29.4606
 21
-32.6267
  0
LINE
  8
0
 10
-29.4606
 20
-32.6267
 11
-29.3429
 21
-33.2434
  0
LINE
  8
0
 10
-29.3429
 20
-33.2434
 11
-29.1489
 21
-33.8406
  0
LINE
  8
0
 10
-29.1489
 20
-33.8406
 11
-28.8815
 21
-34.4088
  0
LINE
  8
0
 10
-28.8815
 20
-34.4088
 11
-28.5451
 21
-34.9389
  0
LINE
  8
0
 10
-28.5451
 20
-34.9389
 11
-28.1448
 21
-35.4227
  0
LINE
  8
0
 10
-28.1448
 20
-35.4227
 11
-27.6871
 21
-35.8526
  0
LINE
  8
0
 10
-27.6871
 20
-35.8526
 11
-27.1791
 21
-36.2216
  0
LINE
  8
0
 10
-27.1791
 20
-36.2216
 11
-26.6289
 21
-36.5241
  0
LINE
  8
0
 10
-26.6289
 20
-36.5241
 11
-26.0451
 21
-36.7553
  0
LINE
  8
0
 10
-26.0451
 20
-36.7553
 11
-25.4369
 21
-36.9114
  0
LINE
  8
0
 10
-25.4369
 20
-36.9114
 11
-24.8139
 21
-36.9901
  0
LINE
  8
0
 10
-24.8139
 20
-36.9901
 11
24.8139
 21
-36.9901
  0
LINE
  8
0
 10
24.8139
 20
-36.9901
 11
25.4369
 21
-36.9114
  0
LINE
  8
0
 10
22.3116
 20
27.0059
 11
21.9379
 21
27.0531
  0
LINE
  8
0
 10
21.9379
 20
27.0531
 11
21.5729
 21
27.1468
  0
LINE
  8
0
 10
21.5729
 20
27.1468
 11
21.2227
 21
27.2855
  0
LINE
  8
0
 10
21.2227
 20
27.2855
 11
20.8925
 21
27.467
  0
LINE
  8
0
 10
20.8925
 20
27.467
 11
20.5877
 21
27.6884
  0
LINE
  8
0
 10
20.5877
 20
27.6884
 11
20.3131
 21
27.9464
  0
LINE
  8
0
 10
20.3131
 20
27.9464
 11
20.0729
 21
28.2366
  0
LINE
  8
0
 10
20.0729
 20
28.2366
 11
19.8711
 21
28.5547
  0
LINE
  8
0
 10
19.8711
 20
28.5547
 11
19.7107
 21
28.8956
  0
LINE
  8
0
 10
19.7107
 20
28.8956
 11
19.5942
 21
29.2539
  0
LINE
  8
0
 10
19.5942
 20
29.2539
 11
19.5237
 21
29.624
  0
LINE
  8
0
 10
19.5237
 20
29.624
 11
19.5
 21
30
  0
LINE
  8
0
 10
19.5
 20
30
 11
19.5237
 21
30.376
  0
LINE
  8
0
 10
19.5237
 20
30.376
 11
19.5942
 21
30.7461
  0
LINE
  8
0
 10
19.5942
 20
30.7461
 11
19.7107
 21
31.1044
  0
LINE
  8
0
 10
19.7107
 20
31.1044
 11
19.8711
 21
31.4453
  0
LINE
  8
0
 10
19.8711
 20
31.4453
 11
20.0729
 21
31.7634
  0
LINE
  8
0
 10
20.0729
 20
31.7634
 11
20.3131
 21
32.0536
  0
LINE
  8
0
 10
20.3131
 20
32.0536
 11
20.5877
 21
32.3115
  0
LINE
  8
0
 10
20.5877
 20
32.3115
 11
20.8925
 21
32.533
  0
LINE
  8
0
 10
20.8925
 20
32.533
 11
21.2227
 21
32.7145
  0
LINE
  8
0
 10
21.2227
 20
32.7145
 11
21.5729
 21
32.8532
  0
LINE
  8
0
 10
21.5729
 20
32.8532
 11
21.9379
 21
32.9469
  0
LINE
  8
0
 10
21.9379
 20
32.9469
 11
22.3116
 21
32.9941
  0
LINE
  8
0
 10
22.3116
 20
32.9941
 11
22.6884
 21
32.9941
  0
LINE
  8
0
 10
22.6884
 20
32.9941
 11
23.0621
 21
32.9469
  0
LINE
  8
0
 10
23.0621
 20
32.9469
 11
23.427
 21
32.8532
  0
LINE
  8
0
 10
23.427
 20
32.8532
 11
23.7773
 21
32.7145
  0
LINE
  8
0
 10
23.7773
 20
32.7145
 11
24.1075
 21
32.533
  0
LINE
  8
0
 10
24.1075
 20
32.533
 11
24.4123
 21
32.3115
  0
LINE
  8
0
 10
24.4123
 20
32.3115
 11
24.6869
 21
32.0536
  0
LINE
  8
0
 10
24.6869
 20
32.0536
 11
24.927
 21
31.7634
  0
LINE
  8
0
 10
24.927
 20
31.7634
 11
25.1289
 21
31.4453
  0
LINE
  8
0
 10
25.1289
 20
31.4453
 11
25.2893
 21
31.1044
  0
LINE
  8
0
 10
25.2893
 20
31.1044
 11
25.4057
 21
30.7461
  0
LINE
  8
0
 10
25.4057
 20
30.7461
 11
25.4763
 21
30.376
  0
LINE
  8
0
 10
25.4763
 20
30.376
 11
25.5
 21
30
  0
LINE
  8
0
 10
25.5
 20
30
 11
25.4763
 21
29.624
  0
LINE
  8
0
 10
25.4763
 20
29.624
 11
25.4057
 21
29.2539
  0
LINE
  8
0
 10
25.4057
 20
29.2539
 11
25.2893
 21
28.8956
  0
LINE
  8
0
 10
25.2893
 20
28.8956
 11
25.1289
 21
28.5547
  0
LINE
  8
0
 10
25.1289
 20
28.5547
 11
24.927
 21
28.2366
  0
LINE
  8
0
 10
24.927
 20
28.2366
 11
24.6869
 21
27.9464
  0
LINE
  8
0
 10
24.6869
 20
27.9464
 11
24.4123
 21
27.6884
  0
LINE
  8
0
 10
24.4123
 20
27.6884
 11
24.1075
 21
27.467
  0
LINE
  8
0
 10
24.1075
 20
27.467
 11
23.7773
 21
27.2855
  0
LINE
  8
0
 10
23.7773
 20
27.2855
 11
23.427
 21
27.1468
  0
LINE
  8
0
 10
23.427
 20
27.1468
 11
23.0621
 21
27.0531
  0
LINE
  8
0
 10
23.0621
 20
27.0531
 11
22.6884
 21
27.0059
  0
LINE
  8
0
 10
22.6884
 20
27.0059
 11
22.3116
 21
27.0059
  0
LINE
  8
0
 10
-22.6884
 20
27.0059
 11
-23.0621
 21
27.0531
  0
LINE
  8
0
 10
-23.0621
 20
27.0531
 11
-23.427
 21
27.1468
  0
LINE
  8
0
 10
-23.427
 20
27.1468
 11
-23.7773
 21
27.2855
  0
LINE
  8
0
 10
-23.7773
 20
27.2855
 11
-24.1075
 21
27.467
  0
LINE
  8
0
 10
-24.1075
 20
27.467
 11
-24.4123
 21
27.6884
  0
LINE
  8
0
 10
-24.4123
 20
27.6884
 11
-24.6869
 21
27.9464
  0
LINE
  8
0
 10
-24.6869
 20
27.9464
 11
-24.927
 21
28.2366
  0
LINE
  8
0
 10
-24.927
 20
28.2366
 11
-25.1289
 21
28.5547
  0
LINE
  8
0
 10
-25.1289
 20
28.5547
 11
-25.2893
 21
28.8956
  0
LINE
  8
0
 10
-25.2893
 20
28.8956
 11
-25.4057
 21
29.2539
  0
LINE
  8
0
 10
-25.4057
 20
29.2539
 11
-25.4763
 21
29.624
  0
LINE
  8
0
 10
-25.4763
 20
29.624
 11
-25.5
 21
30
  0
LINE
  8
0
 10
-25.5
 20
30
 11
-25.4763
 21
30.376
  0
LINE
  8
0
 10
-25.4763
 20
30.376
 11
-25.4057
 21
30.7461
  0
LINE
  8
0
 10
-25.4057
 20
30.7461
 11
-25.2893
 21
31.1044
  0
LINE
  8
0
 10
-25.2893
 20
31.1044
 11
-25.1289
 21
31.4453
  0
LINE
  8
0
 10
-25.1289
 20
31.4453
 11
-24.927
 21
31.7634
  0
LINE
  8
0
 10
-24.927
 20
31.7634
 11
-24.6869
 21
32.0536
  0
LINE
  8
0
 10
-24.6869
 20
32.0536
 11
-24.4123
 21
32.3115
  0
LINE
  8
0
 10
-24.4123
 20
32.3115
 11
-24.1075
 21
32.533
  0
LINE
  8
0
 10
-24.1075
 20
32.533
 11
-23.7773
 21
32.7145
  0
LINE
  8
0
 10
-23.7773
 20
32.7145
 11
-23.427
 21
32.8532
  0
LINE
  8
0
 10
-23.427
 20
32.8532
 11
-23.0621
 21
32.9469
  0
LINE
  8
0
 10
-23.0621
 20
32.9469
 11
-22.6884
 21
32.9941
  0
LINE
  8
0
 10
-22.6884
 20
32.9941
 11
-22.3116
 21
32.9941
  0
LINE
  8
0
 10
-22.3116
 20
32.9941
 11
-21.9379
 21
32.9469
  0
LINE
  8
0
 10
-21.9379
 20
32.9469
 11
-21.5729
 21
32.8532
  0
LINE
  8
0
 10
-21.5729
 20
32.8532
 11
-21.2227
 21
32.7145
  0
LINE
  8
0
 10
-21.2227
 20
32.7145
 11
-20.8925
 21
32.533
  0
LINE
  8
0
 10
-20.8925
 20
32.533
 11
-20.5877
 21
32.3115
  0
LINE
  8
0
 10
-20.5877
 20
32.3115
 11
-20.3131
 21
32.0536
  0
LINE
  8
0
 10
-20.3131
 20
32.0536
 11
-20.0729
 21
31.7634
  0
LINE
  8
0
 10
-20.0729
 20
31.7634
 11
-19.8711
 21
31.4453
  0
LINE
  8
0
 10
-19.8711
 20
31.4453
 11
-19.7107
 21
31.1044
  0
LINE
  8
0
 10
-19.7107
 20
31.1044
 11
-19.5942
 21
30.7461
  0
LINE
  8
0
 10
-19.5942
 20
30.7461
 11
-19.5237
 21
30.376
  0
LINE
  8
0
 10
-19.5237
 20
30.376
 11
-19.5
 21
30
  0
LINE
  8
0
 10
-19.5
 20
30
 11
-19.5237
 21
29.624
  0
LINE
  8
0
 10
-19.5237
 20
29.624
 11
-19.5942
 21
29.2539
  0
LINE
  8
0
 10
-19.5942
 20
29.2539
 11
-19.7107
 21
28.8956
  0
LINE
  8
0
 10
-19.7107
 20
28.8956
 11
-19.8711
 21
28.5547
  0
LINE
  8
0
 10
-19.8711
 20
28.5547
 11
-20.0729
 21
28.2366
  0
LINE
  8
0
 10
-20.0729
 20
28.2366
 11
-20.3131
 21
27.9464
  0
LINE
  8
0
 10
-20.3131
 20
27.9464
 11
-20.5877
 21
27.6884
  0
LINE
  8
0
 10
-20.5877
 20
27.6884
 11
-20.8925
 21
27.467
  0
LINE
  8
0
 10
-20.8925
 20
27.467
 11
-21.2227
 21
27.2855
  0
LINE
  8
0
 10
-21.2227
 20
27.2855
 11
-21.5729
 21
27.1468
  0
LINE
  8
0
 10
-21.5729
 20
27.1468
 11
-21.9379
 21
27.0531
  0
LINE
  8
0
 10
-21.9379
 20
27.0531
 11
-22.3116
 21
27.0059
  0
LINE
  8
0
 10
-22.3116
 20
27.0059
 11
-22.6884
 21
27.0059
  0
LINE
  8
0
 10
-10.64
 20
-20.25
 11
-10.64
 21
31.25
  0
LINE
  8
0
 10
-10.64
 20
31.25
 11
-7.14
 21
31.25
  0
LINE
  8
0
 10
-7.14
 20
31.25
 11
-7.14
 21
-20.25
  0
LINE
  8
0
 10
-7.14
 20
-20.25
 11
-10.64
 21
-20.25
  0
LINE
  8
0
 10
7.14
 20
-20.25
 11
7.14
 21
31.25
  0
LINE
  8
0
 10
7.14
 20
31.25
 11
10.64
 21
31.25
  0
LINE
  8
0
 10
10.64
 20
31.25
 11
10.64
 21
-20.25
  0
LINE
  8
0
 10
10.64
 20
-20.25
 11
7.14
 21
-20.25
  0
LINE
  8
0
 10
22.4058
 20
21.003
 11
22.2189
 21
21.0266
  0
LINE
  8
0
 10
22.2189
 20
21.0266
 11
22.0365
 21
21.0734
  0
LINE
  8
0
 10
22.0365
 20
21.0734
 11
21.8613
 21
21.1427
  0
LINE
  8
0
 10
21.8613
 20
21.1427
 11
21.6963
 21
21.2335
  0
LINE
  8
0
 10
21.6963
 20
21.2335
 11
21.5439
 21
21.3442
  0
LINE
  8
0
 10
21.5439
 20
21.3442
 11
21.4065
 21
21.4732
  0
LINE
  8
0
 10
21.4065
 20
21.4732
 11
21.2865
 21
21.6183
  0
LINE
  8
0
 10
21.2865
 20
21.6183
 11
21.1855
 21
21.7774
  0
LINE
  8
0
 10
21.1855
 20
21.7774
 11
21.1053
 21
21.9478
  0
LINE
  8
0
 10
21.1053
 20
21.9478
 11
21.0471
 21
22.127
  0
LINE
  8
0
 10
21.0471
 20
22.127
 11
21.0118
 21
22.312
  0
LINE
  8
0
 10
21.0118
 20
22.312
 11
21
 21
22.5
  0
LINE
  8
0
 10
21
 20
22.5
 11
21.0118
 21
22.688
  0
LINE
  8
0
 10
21.0118
 20
22.688
 11
21.0471
 21
22.873
  0
LINE
  8
0
 10
21.0471
 20
22.873
 11
21.1053
 21
23.0522
  0
LINE
  8
0
 10
21.1053
 20
23.0522
 11
21.1855
 21
23.2226
  0
LINE
  8
0
 10
21.1855
 20
23.2226
 11
21.2865
 21
23.3817
  0
LINE
  8
0
 10
21.2865
 20
23.3817
 11
21.4065
 21
23.5268
  0
LINE
  8
0
 10
21.4065
 20
23.5268
 11
21.5439
 21
23.6558
  0
LINE
  8
0
 10
21.5439
 20
23.6558
 11
21.6963
 21
23.7665
  0
LINE
  8
0
 10
21.6963
 20
23.7665
 11
21.8613
 21
23.8572
  0
LINE
  8
0
 10
21.8613
 20
23.8572
 11
22.0365
 21
23.9266
  0
LINE
  8
0
 10
22.0365
 20
23.9266
 11
22.2189
 21
23.9734
  0
LINE
  8
0
 10
22.2189
 20
23.9734
 11
22.4058
 21
23.997
  0
LINE
  8
0
 10
22.4058
 20
23.997
 11
22.5942
 21
23.997
  0
LINE
  8
0
 10
22.5942
 20
23.997
 11
22.7811
 21
23.9734
  0
LINE
  8
0
 10
22.7811
 20
23.9734
 11
22.9635
 21
23.9266
  0
LINE
  8
0
 10
22.9635
 20
23.9266
 11
23.1387
 21
23.8572
  0
LINE
  8
0
 10
23.1387
 20
23.8572
 11
23.3037
 21
23.7665
  0
LINE
  8
0
 10
23.3037
 20
23.7665
 11
23.4561
 21
23.6558
  0
LINE
  8
0
 10
23.4561
 20
23.6558
 11
23.5934
 21
23.5268
  0
LINE
  8
0
 10
23.5934
 20
23.5268
 11
23.7135
 21
23.3817
  0
LINE
  8
0
 10
23.7135
 20
23.3817
 11
23.8145
 21
23.2226
  0
LINE
  8
0
 10
23.8145
 20
23.2226
 11
23.8947
 21
23.0522
  0
LINE
  8
0
 10
23.8947
 20
23.0522
 11
23.9529
 21
22.873
  0
LINE
  8
0
 10
23.9529
 20
22.873
 11
23.9882
 21
22.688
  0
LINE
  8
0
 10
23.9882
 20
22.688
 11
24
 21
22.5
  0
LINE
  8
0
 10
24
 20
22.5
 11
23.9882
 21
22.312
  0
LINE
  8
0
 10
23.9882
 20
22.312
 11
23.9529
 21
22.127
  0
LINE
  8
0
 10
23.9529
 20
22.127
 11
23.8947
 21
21.9478
  0
LINE
  8
0
 10
23.8947
 20
21.9478
 11
23.8145
 21
21.7774
  0
LINE
  8
0
 10
23.8145
 20
21.7774
 11
23.7135
 21
21.6183
  0
LINE
  8
0
 10
23.7135
 20
21.6183
 11
23.5934
 21
21.4732
  0
LINE
  8
0
 10
23.5934
 20
21.4732
 11
23.4561
 21
21.3442
  0
LINE
  8
0
 10
23.4561
 20
21.3442
 11
23.3037
 21
21.2335
  0
LINE
  8
0
 10
23.3037
 20
21.2335
 11
23.1387
 21
21.1427
  0
LINE
  8
0
 10
23.1387
 20
21.1427
 11
22.9635
 21
21.0734
  0
LINE
  8
0
 10
22.9635
 20
21.0734
 11
22.7811
 21
21.0266
  0
LINE
  8
0
 10
22.7811
 20
21.0266
 11
22.5942
 21
21.003
  0
LINE
  8
0
 10
22.5942
 20
21.003
 11
22.4058
 21
21.003
  0
LINE
  8
0
 10
-22.5942
 20
21.003
 11
-22.7811
 21
21.0266
  0
LINE
  8
0
 10
-22.7811
 20
21.0266
 11
-22.9635
 21
21.0734
  0
LINE
  8
0
 10
-22.9635
 20
21.0734
 11
-23.1387
 21
21.1427
  0
LINE
  8
0
 10
-23.1387
 20
21.1427
 11
-23.3037
 21
21.2335
  0
LINE
  8
0
 10
-23.3037
 20
21.2335
 11
-23.4561
 21
21.3442
  0
LINE
  8
0
 10
-23.4561
 20
21.3442
 11
-23.5934
 21
21.4732
  0
LINE
  8
0
 10
-23.5934
 20
21.4732
 11
-23.7135
 21
21.6183
  0
LINE
  8
0
 10
-23.7135
 20
21.6183
 11
-23.8145
 21
21.7774
  0
LINE
  8
0
 10
-23.8145
 20
21.7774
 11
-23.8947
 21
21.9478
  0
LINE
  8
0
 10
-23.8947
 20
21.9478
 11
-23.9529
 21
22.127
  0
LINE
  8
0
 10
-23.9529
 20
22.127
 11
-23.9882
 21
22.312
  0
LINE
  8
0
 10
-23.9882
 20
22.312
 11
-24
 21
22.5
  0
LINE
  8
0
 10
-24
 20
22.5
 11
-23.9882
 21
22.688
  0
LINE
  8
0
 10
-23.9882
 20
22.688
 11
-23.9529
 21
22.873
  0
LINE
  8
0
 10
-23.9529
 20
22.873
 11
-23.8947
 21
23.0522
  0
LINE
  8
0
 10
-23.8947
 20
23.0522
 11
-23.8145
 21
23.2226
  0
LINE
  8
0
 10
-23.8145
 20
23.2226
 11
-23.7135
 21
23.3817
  0
LINE
  8
0
 10
-23.7135
 20
23.3817
 11
-23.5934
 21
23.5268
  0
LINE
  8
0
 10
-23.5934
 20
23.5268
 11
-23.4561
 21
23.6558
  0
LINE
  8
0
 10
-23.4561
 20
23.6558
 11
-23.3037
 21
23.7665
  0
LINE
  8
0
 10
-23.3037
 20
23.7665
 11
-23.1387
 21
23.8572
  0
LINE
  8
0
 10
-23.1387
 20
23.8572
 11
-22.9635
 21
23.9266
  0
LINE
  8
0
 10
-22.9635
 20
23.9266
 11
-22.7811
 21
23.9734
  0
LINE
  8
0
 10
-22.7811
 20
23.9734
 11
-22.5942
 21
23.997
  0
LINE
  8
0
 10
-22.5942
 20
23.997
 11
-22.4058
 21
23.997
  0
LINE
  8
0
 10
-22.4058
 20
23.997
 11
-22.2189
 21
23.9734
  0
LINE
  8
0
 10
-22.2189
 20
23.9734
 11
-22.0365
 21
23.9266
  0
LINE
  8
0
 10
-22.0365
 20
23.9266
 11
-21.8613
 21
23.8572
  0
LINE
  8
0
 10
-21.8613
 20
23.8572
 11
-21.6963
 21
23.7665
  0
LINE
  8
0
 10
-21.6963
 20
23.7665
 11
-21.5439
 21
23.6558
  0
LINE
  8
0
 10
-21.5439
 20
23.6558
 11
-21.4065
 21
23.5268
  0
LINE
  8
0
 10
-21.4065
 20
23.5268
 11
-21.2865
 21
23.3817
  0
LINE
  8
0
 10
-21.2865
 20
23.3817
 11
-21.1855
 21
23.2226
  0
LINE
  8
0
 10
-21.1855
 20
23.2226
 11
-21.1053
 21
23.0522
  0
LINE
  8
0
 10
-21.1053
 20
23.0522
 11
-21.0471
 21
22.873
  0
LINE
  8
0
 10
-21.0471
 20
22.873
 11
-21.0118
 21
22.688
  0
LINE
  8
0
 10
-21.0118
 20
22.688
 11
-21
 21
22.5
  0
LINE
  8
0
 10
-21
 20
22.5
 11
-21.0118
 21
22.312
  0
LINE
  8
0
 10
-21.0118
 20
22.312
 11
-21.0471
 21
22.127
  0
LINE
  8
0
 10
-21.0471
 20
22.127
 11
-21.1053
 21
21.9478
  0
LINE
  8
0
 10
-21.1053
 20
21.9478
 11
-21.1855
 21
21.7774
  0
LINE
  8
0
 10
-21.1855
 20
21.7774
 11
-21.2865
 21
21.6183
  0
LINE
  8
0
 10
-21.2865
 20
21.6183
 11
-21.4065
 21
21.4732
  0
LINE
  8
0
 10
-21.4065
 20
21.4732
 11
-21.5439
 21
21.3442
  0
LINE
  8
0
 10
-21.5439
 20
21.3442
 11
-21.6963
 21
21.2335
  0
LINE
  8
0
 10
-21.6963
 20
21.2335
 11
-21.8613
 21
21.1427
  0
LINE
  8
0
 10
-21.8613
 20
21.1427
 11
-22.0365
 21
21.0734
  0
LINE
  8
0
 10
-22.0365
 20
21.0734
 11
-22.2189
 21
21.0266
  0
LINE
  8
0
 10
-22.2189
 20
21.0266
 11
-22.4058
 21
21.003
  0
LINE
  8
0
 10
-22.4058
 20
21.003
 11
-22.5942
 21
21.003
  0
LINE
  8
0
 10
22.3116
 20
12.0059
 11
21.9379
 21
12.0531
  0
LINE
  8
0
 10
21.9379
 20
12.0531
 11
21.5729
 21
12.1468
  0
LINE
  8
0
 10
21.5729
 20
12.1468
 11
21.2227
 21
12.2855
  0
LINE
  8
0
 10
21.2227
 20
12.2855
 11
20.8925
 21
12.467
  0
LINE
  8
0
 10
20.8925
 20
12.467
 11
20.5877
 21
12.6884
  0
LINE
  8
0
 10
20.5877
 20
12.6884
 11
20.3131
 21
12.9464
  0
LINE
  8
0
 10
20.3131
 20
12.9464
 11
20.0729
 21
13.2366
  0
LINE
  8
0
 10
20.0729
 20
13.2366
 11
19.8711
 21
13.5547
  0
LINE
  8
0
 10
19.8711
 20
13.5547
 11
19.7107
 21
13.8956
  0
LINE
  8
0
 10
19.7107
 20
13.8956
 11
19.5942
 21
14.2539
  0
LINE
  8
0
 10
19.5942
 20
14.2539
 11
19.5237
 21
14.624
  0
LINE
  8
0
 10
19.5237
 20
14.624
 11
19.5
 21
15
  0
LINE
  8
0
 10
19.5
 20
15
 11
19.5237
 21
15.376
  0
LINE
  8
0
 10
19.5237
 20
15.376
 11
19.5942
 21
15.7461
  0
LINE
  8
0
 10
19.5942
 20
15.7461
 11
19.7107
 21
16.1044
  0
LINE
  8
0
 10
19.7107
 20
16.1044
 11
19.8711
 21
16.4453
  0
LINE
  8
0
 10
19.8711
 20
16.4453
 11
20.0729
 21
16.7634
  0
LINE
  8
0
 10
20.0729
 20
16.7634
 11
20.3131
 21
17.0536
  0
LINE
  8
0
 10
20.3131
 20
17.0536
 11
20.5877
 21
17.3115
  0
LINE
  8
0
 10
20.5877
 20
17.3115
 11
20.8925
 21
17.533
  0
LINE
  8
0
 10
20.8925
 20
17.533
 11
21.2227
 21
17.7145
  0
LINE
  8
0
 10
21.2227
 20
17.7145
 11
21.5729
 21
17.8532
  0
LINE
  8
0
 10
21.5729
 20
17.8532
 11
21.9379
 21
17.9469
  0
LINE
  8
0
 10
21.9379
 20
17.9469
 11
22.3116
 21
17.9941
  0
LINE
  8
0
 10
22.3116
 20
17.9941
 11
22.6884
 21
17.9941
  0
LINE
  8
0
 10
22.6884
 20
17.9941
 11
23.0621
 21
17.9469
  0
LINE
  8
0
 10
23.0621
 20
17.9469
 11
23.427
 21
17.8532
  0
LINE
  8
0
 10
23.427
 20
17.8532
 11
23.7773
 21
17.7145
  0
LINE
  8
0
 10
23.7773
 20
17.7145
 11
24.1075
 21
17.533
  0
LINE
  8
0
 10
24.1075
 20
17.533
 11
24.4123
 21
17.3115
  0
LINE
  8
0
 10
24.4123
 20
17.3115
 11
24.6869
 21
17.0536
  0
LINE
  8
0
 10
24.6869
 20
17.0536
 11
24.927
 21
16.7634
  0
LINE
  8
0
 10
24.927
 20
16.7634
 11
25.1289
 21
16.4453
  0
LINE
  8
0
 10
25.1289
 20
16.4453
 11
25.2893
 21
16.1044
  0
LINE
  8
0
 10
25.2893
 20
16.1044
 11
25.4057
 21
15.7461
  0
LINE
  8
0
 10
25.4057
 20
15.7461
 11
25.4763
 21
15.376
  0
LINE
  8
0
 10
25.4763
 20
15.376
 11
25.5
 21
15
  0
LINE
  8
0
 10
25.5
 20
15
 11
25.4763
 21
14.624
  0
LINE
  8
0
 10
25.4763
 20
14.624
 11
25.4057
 21
14.2539
  0
LINE
  8
0
 10
25.4057
 20
14.2539
 11
25.2893
 21
13.8956
  0
LINE
  8
0
 10
25.2893
 20
13.8956
 11
25.1289
 21
13.5547
  0
LINE
  8
0
 10
25.1289
 20
13.5547
 11
24.927
 21
13.2366
  0
LINE
  8
0
 10
24.927
 20
13.2366
 11
24.6869
 21
12.9464
  0
LINE
  8
0
 10
24.6869
 20
12.9464
 11
24.4123
 21
12.6884
  0
LINE
  8
0
 10
24.4123
 20
12.6884
 11
24.1075
 21
12.467
  0
LINE
  8
0
 10
24.1075
 20
12.467
 11
23.7773
 21
12.2855
  0
LINE
  8
0
 10
23.7773
 20
12.2855
 11
23.427
 21
12.1468
  0
LINE
  8
0
 10
23.427
 20
12.1468
 11
23.0621
 21
12.0531
  0
LINE
  8
0
 10
23.0621
 20
12.0531
 11
22.6884
 21
12.0059
  0
LINE
  8
0
 10
22.6884
 20
12.0059
 11
22.3116
 21
12.0059
  0
LINE
  8
0
 10
-22.6884
 20
12.0059
 11
-23.0621
 21
12.0531
  0
LINE
  8
0
 10
-23.0621
 20
12.0531
 11
-23.427
 21
12.1468
  0
LINE
  8
0
 10
-23.427
 20
12.1468
 11
-23.7773
 21
12.2855
  0
LINE
  8
0
 10
-23.7773
 20
12.2855
 11
-24.1075
 21
12.467
  0
LINE
  8
0
 10
-24.1075
 20
12.467
 11
-24.4123
 21
12.6884
  0
LINE
  8
0
 10
-24.4123
 20
12.6884
 11
-24.6869
 21
12.9464
  0
LINE
  8
0
 10
-24.6869
 20
12.9464
 11
-24.927
 21
13.2366
  0
LINE
  8
0
 10
-24.927
 20
13.2366
 11
-25.1289
 21
13.5547
  0
LINE
  8
0
 10
-25.1289
 20
13.5547
 11
-25.2893
 21
13.8956
  0
LINE
  8
0
 10
-25.2893
 20
13.8956
 11
-25.4057
 21
14.2539
  0
LINE
  8
0
 10
-25.4057
 20
14.2539
 11
-25.4763
 21
14.624
  0
LINE
  8
0
 10
-25.4763
 20
14.624
 11
-25.5
 21
15
  0
LINE
  8
0
 10
-25.5
 20
15
 11
-25.4763
 21
15.376
  0
LINE
  8
0
 10
-25.4763
 20
15.376
 11
-25.4057
 21
15.7461
  0
LINE
  8
0
 10
-25.4057
 20
15.7461
 11
-25.2893
 21
16.1044
  0
LINE
  8
0
 10
-25.2893
 20
16.1044
 11
-25.1289
 21
16.4453
  0
LINE
  8
0
 10
-25.1289
 20
16.4453
 11
-24.927
 21
16.7634
  0
LINE
  8
0
 10
-24.927
 20
16.7634
 11
-24.6869
 21
17.0536
  0
LINE
  8
0
 10
-24.6869
 20
17.0536
 11
-24.4123
 21
17.3115
  0
LINE
  8
0
 10
-24.4123
 20
17.3115
 11
-24.1075
 21
17.533
  0
LINE
  8
0
 10
-24.1075
 20
17.533
 11
-23.7773
 21
17.7145
  0
LINE
  8
0
 10
-23.7773
 20
17.7145
 11
-23.427
 21
17.8532
  0
LINE
  8
0
 10
-23.427
 20
17.8532
 11
-23.0621
 21
17.9469
  0
LINE
  8
0
 10
-23.0621
 20
17.9469
 11
-22.6884
 21
17.9941
  0
LINE
  8
0
 10
-22.6884
 20
17.9941
 11
-22.3116
 21
17.9941
  0
LINE
  8
0
 10
-22.3116
 20
17.9941
 11
-21.9379
 21
17.9469
  0
LINE
  8
0
 10
-21.9379
 20
17.9469
 11
-21.5729
 21
17.8532
  0
LINE
  8
0
 10
-21.5729
 20
17.8532
 11
-21.2227
 21
17.7145
  0
LINE
  8
0
 10
-21.2227
 20
17.7145
 11
-20.8925
 21
17.533
  0
LINE
  8
0
 10
-20.8925
 20
17.533
 11
-20.5877
 21
17.3115
  0
LINE
  8
0
 10
-20.5877
 20
17.3115
 11
-20.3131
 21
17.0536
  0
LINE
  8
0
 10
-20.3131
 20
17.0536
 11
-20.0729
 21
16.7634
  0
LINE
  8
0
 10
-20.0729
 20
16.7634
 11
-19.8711
 21
16.4453
  0
LINE
  8
0
 10
-19.8711
 20
16.4453
 11
-19.7107
 21
16.1044
  0
LINE
  8
0
 10
-19.7107
 20
16.1044
 11
-19.5942
 21
15.7461
  0
LINE
  8
0
 10
-19.5942
 20
15.7461
 11
-19.5237
 21
15.376
  0
LINE
  8
0
 10
-19.5237
 20
15.376
 11
-19.5
 21
15
  0
LINE
  8
0
 10
-19.5
 20
15
 11
-19.5237
 21
14.624
  0
LINE
  8
0
 10
-19.5237
 20
14.624
 11
-19.5942
 21
14.2539
  0
LINE
  8
0
 10
-19.5942
 20
14.2539
 11
-19.7107
 21
13.8956
  0
LINE
  8
0
 10
-19.7107
 20
13.8956
 11
-19.8711
 21
13.5547
  0
LINE
  8
0
 10
-19.8711
 20
13.5547
 11
-20.0729
 21
13.2366
  0
LINE
  8
0
 10
-20.0729
 20
13.2366
 11
-20.3131
 21
12.9464
  0
LINE
  8
0
 10
-20.3131
 20
12.9464
 11
-20.5877
 21
12.6884
  0
LINE
  8
0
 10
-20.5877
 20
12.6884
 11
-20.8925
 21
12.467
  0
LINE
  8
0
 10
-20.8925
 20
12.467
 11
-21.2227
 21
12.2855
  0
LINE
  8
0
 10
-21.2227
 20
12.2855
 11
-21.5729
 21
12.1468
  0
LINE
  8
0
 10
-21.5729
 20
12.1468
 11
-21.9379
 21
12.0531
  0
LINE
  8
0
 10
-21.9379
 20
12.0531
 11
-22.3116
 21
12.0059
  0
LINE
  8
0
 10
-22.3116
 20
12.0059
 11
-22.6884
 21
12.0059
  0
LINE
  8
0
 10
-22.5942
 20
6.00294
 11
-22.7811
 21
6.02657
  0
LINE
  8
0
 10
-22.7811
 20
6.02657
 11
-22.9635
 21
6.07341
  0
LINE
  8
0
 10
-22.9635
 20
6.07341
 11
-23.1387
 21
6.14275
  0
LINE
  8
0
 10
-23.1387
 20
6.14275
 11
-23.3037
 21
6.23351
  0
LINE
  8
0
 10
-23.3037
 20
6.23351
 11
-23.4561
 21
6.34422
  0
LINE
  8
0
 10
-23.4561
 20
6.34422
 11
-23.5934
 21
6.47318
  0
LINE
  8
0
 10
-23.5934
 20
6.47318
 11
-23.7135
 21
6.61832
  0
LINE
  8
0
 10
-23.7135
 20
6.61832
 11
-23.8145
 21
6.77736
  0
LINE
  8
0
 10
-23.8145
 20
6.77736
 11
-23.8947
 21
6.9478
  0
LINE
  8
0
 10
-23.8947
 20
6.9478
 11
-23.9529
 21
7.12695
  0
LINE
  8
0
 10
-23.9529
 20
7.12695
 11
-23.9882
 21
7.312
  0
LINE
  8
0
 10
-23.9882
 20
7.312
 11
-24
 21
7.5
  0
LINE
  8
0
 10
-24
 20
7.5
 11
-23.9882
 21
7.68799
  0
LINE
  8
0
 10
-23.9882
 20
7.68799
 11
-23.9529
 21
7.87303
  0
LINE
  8
0
 10
-23.9529
 20
7.87303
 11
-23.8947
 21
8.05219
  0
LINE
  8
0
 10
-23.8947
 20
8.05219
 11
-23.8145
 21
8.22263
  0
LINE
  8
0
 10
-23.8145
 20
8.22263
 11
-23.7135
 21
8.38167
  0
LINE
  8
0
 10
-23.7135
 20
8.38167
 11
-23.5934
 21
8.52681
  0
LINE
  8
0
 10
-23.5934
 20
8.52681
 11
-23.4561
 21
8.65576
  0
LINE
  8
0
 10
-23.4561
 20
8.65576
 11
-23.3037
 21
8.76648
  0
LINE
  8
0
 10
-23.3037
 20
8.76648
 11
-23.1387
 21
8.85724
  0
LINE
  8
0
 10
-23.1387
 20
8.85724
 11
-22.9635
 21
8.92657
  0
LINE
  8
0
 10
-22.9635
 20
8.92657
 11
-22.7811
 21
8.97342
  0
LINE
  8
0
 10
-22.7811
 20
8.97342
 11
-22.5942
 21
8.99704
  0
LINE
  8
0
 10
-22.5942
 20
8.99704
 11
-22.4058
 21
8.99704
  0
LINE
  8
0
 10
-22.4058
 20
8.99704
 11
-22.2189
 21
8.97342
  0
LINE
  8
0
 10
-22.2189
 20
8.97342
 11
-22.0365
 21
8.92657
  0
LINE
  8
0
 10
-22.0365
 20
8.92657
 11
-21.8613
 21
8.85724
  0
LINE
  8
0
 10
-21.8613
 20
8.85724
 11
-21.6963
 21
8.76648
  0
LINE
  8
0
 10
-21.6963
 20
8.76648
 11
-21.5439
 21
8.65576
  0
LINE
  8
0
 10
-21.5439
 20
8.65576
 11
-21.4065
 21
8.52681
  0
LINE
  8
0
 10
-21.4065
 20
8.52681
 11
-21.2865
 21
8.38167
  0
LINE
  8
0
 10
-21.2865
 20
8.38167
 11
-21.1855
 21
8.22263
  0
LINE
  8
0
 10
-21.1855
 20
8.22263
 11
-21.1053
 21
8.05219
  0
LINE
  8
0
 10
-21.1053
 20
8.05219
 11
-21.0471
 21
7.87303
  0
LINE
  8
0
 10
-21.0471
 20
7.87303
 11
-21.0118
 21
7.68799
  0
LINE
  8
0
 10
-21.0118
 20
7.68799
 11
-21
 21
7.5
  0
LINE
  8
0
 10
-21
 20
7.5
 11
-21.0118
 21
7.312
  0
LINE
  8
0
 10
-21.0118
 20
7.312
 11
-21.0471
 21
7.12695
  0
LINE
  8
0
 10
-21.0471
 20
7.12695
 11
-21.1053
 21
6.9478
  0
LINE
  8
0
 10
-21.1053
 20
6.9478
 11
-21.1855
 21
6.77736
  0
LINE
  8
0
 10
-21.1855
 20
6.77736
 11
-21.2865
 21
6.61832
  0
LINE
  8
0
 10
-21.2865
 20
6.61832
 11
-21.4065
 21
6.47318
  0
LINE
  8
0
 10
-21.4065
 20
6.47318
 11
-21.5439
 21
6.34422
  0
LINE
  8
0
 10
-21.5439
 20
6.34422
 11
-21.6963
 21
6.23351
  0
LINE
  8
0
 10
-21.6963
 20
6.23351
 11
-21.8613
 21
6.14275
  0
LINE
  8
0
 10
-21.8613
 20
6.14275
 11
-22.0365
 21
6.07341
  0
LINE
  8
0
 10
-22.0365
 20
6.07341
 11
-22.2189
 21
6.02657
  0
LINE
  8
0
 10
-22.2189
 20
6.02657
 11
-22.4058
 21
6.00294
  0
LINE
  8
0
 10
-22.4058
 20
6.00294
 11
-22.5942
 21
6.00294
  0
LINE
  8
0
 10
22.4058
 20
6.00294
 11
22.2189
 21
6.02657
  0
LINE
  8
0
 10
22.2189
 20
6.02657
 11
22.0365
 21
6.07341
  0
LINE
  8
0
 10
22.0365
 20
6.07341
 11
21.8613
 21
6.14275
  0
LINE
  8
0
 10
21.8613
 20
6.14275
 11
21.6963
 21
6.23351
  0
LINE
  8
0
 10
21.6963
 20
6.23351
 11
21.5439
 21
6.34422
  0
LINE
  8
0
 10
21.5439
 20
6.34422
 11
21.4065
 21
6.47318
  0
LINE
  8
0
 10
21.4065
 20
6.47318
 11
21.2865
 21
6.61832
  0
LINE
  8
0
 10
21.2865
 20
6.61832
 11
21.1855
 21
6.77736
  0
LINE
  8
0
 10
21.1855
 20
6.77736
 11
21.1053
 21
6.9478
  0
LINE
  8
0
 10
21.1053
 20
6.9478
 11
21.0471
 21
7.12695
  0
LINE
  8
0
 10
21.0471
 20
7.12695
 11
21.0118
 21
7.312
  0
LINE
  8
0
 10
21.0118
 20
7.312
 11
21
 21
7.5
  0
LINE
  8
0
 10
21
 20
7.5
 11
21.0118
 21
7.68799
  0
LINE
  8
0
 10
21.0118
 20
7.68799
 11
21.0471
 21
7.87303
  0
LINE
  8
0
 10
21.0471
 20
7.87303
 11
21.1053
 21
8.05219
  0
LINE
  8
0
 10
21.1053
 20
8.05219
 11
21.1855
 21
8.22263
  0
LINE
  8
0
 10
21.1855
 20
8.22263
 11
21.2865
 21
8.38167
  0
LINE
  8
0
 10
21.2865
 20
8.38167
 11
21.4065
 21
8.52681
  0
LINE
  8
0
 10
21.4065
 20
8.52681
 11
21.5439
 21
8.65576
  0
LINE
  8
0
 10
21.5439
 20
8.65576
 11
21.6963
 21
8.76648
  0
LINE
  8
0
 10
21.6963
 20
8.76648
 11
21.8613
 21
8.85724
  0
LINE
  8
0
 10
21.8613
 20
8.85724
 11
22.0365
 21
8.92657
  0
LINE
  8
0
 10
22.0365
 20
8.92657
 11
22.2189
 21
8.97342
  0
LINE
  8
0
 10
22.2189
 20
8.97342
 11
22.4058
 21
8.99704
  0
LINE
  8
0
 10
22.4058
 20
8.99704
 11
22.5942
 21
8.99704
  0
LINE
  8
0
 10
22.5942
 20
8.99704
 11
22.7811
 21
8.97342
  0
LINE
  8
0
 10
22.7811
 20
8.97342
 11
22.9635
 21
8.92657
  0
LINE
  8
0
 10
22.9635
 20
8.92657
 11
23.1387
 21
8.85724
  0
LINE
  8
0
 10
23.1387
 20
8.85724
 11
23.3037
 21
8.76648
  0
LINE
  8
0
 10
23.3037
 20
8.76648
 11
23.4561
 21
8.65576
  0
LINE
  8
0
 10
23.4561
 20
8.65576
 11
23.5934
 21
8.52681
  0
LINE
  8
0
 10
23.5934
 20
8.52681
 11
23.7135
 21
8.38167
  0
LINE
  8
0
 10
23.7135
 20
8.38167
 11
23.8145
 21
8.22263
  0
LINE
  8
0
 10
23.8145
 20
8.22263
 11
23.8947
 21
8.05219
  0
LINE
  8
0
 10
23.8947
 20
8.05219
 11
23.9529
 21
7.87303
  0
LINE
  8
0
 10
23.9529
 20
7.87303
 11
23.9882
 21
7.68799
  0
LINE
  8
0
 10
23.9882
 20
7.68799
 11
24
 21
7.5
  0
LINE
  8
0
 10
24
 20
7.5
 11
23.9882
 21
7.312
  0
LINE
  8
0
 10
23.9882
 20
7.312
 11
23.9529
 21
7.12695
  0
LINE
  8
0
 10
23.9529
 20
7.12695
 11
23.8947
 21
6.9478
  0
LINE
  8
0
 10
23.8947
 20
6.9478
 11
23.8145
 21
6.77736
  0
LINE
  8
0
 10
23.8145
 20
6.77736
 11
23.7135
 21
6.61832
  0
LINE
  8
0
 10
23.7135
 20
6.61832
 11
23.5934
 21
6.47318
  0
LINE
  8
0
 10
23.5934
 20
6.47318
 11
23.4561
 21
6.34422
  0
LINE
  8
0
 10
23.4561
 20
6.34422
 11
23.3037
 21
6.23351
  0
LINE
  8
0
 10
23.3037
 20
6.23351
 11
23.1387
 21
6.14275
  0
LINE
  8
0
 10
23.1387
 20
6.14275
 11
22.9635
 21
6.07341
  0
LINE
  8
0
 10
22.9635
 20
6.07341
 11
22.7811
 21
6.02657
  0
LINE
  8
0
 10
22.7811
 20
6.02657
 11
22.5942
 21
6.00294
  0
LINE
  8
0
 10
22.5942
 20
6.00294
 11
22.4058
 21
6.00294
  0
LINE
  8
0
 10
-22.6884
 20
-2.99408
 11
-23.0621
 21
-2.94685
  0
LINE
  8
0
 10
-23.0621
 20
-2.94685
 11
-23.427
 21
-2.85316
  0
LINE
  8
0
 10
-23.427
 20
-2.85316
 11
-23.7773
 21
-2.71448
  0
LINE
  8
0
 10
-23.7773
 20
-2.71448
 11
-24.1075
 21
-2.53297
  0
LINE
  8
0
 10
-24.1075
 20
-2.53297
 11
-24.4123
 21
-2.31154
  0
LINE
  8
0
 10
-24.4123
 20
-2.31154
 11
-24.6869
 21
-2.05363
  0
LINE
  8
0
 10
-24.6869
 20
-2.05363
 11
-24.927
 21
-1.76335
  0
LINE
  8
0
 10
-24.927
 20
-1.76335
 11
-25.1289
 21
-1.44525
  0
LINE
  8
0
 10
-25.1289
 20
-1.44525
 11
-25.2893
 21
-1.10437
  0
LINE
  8
0
 10
-25.2893
 20
-1.10437
 11
-25.4057
 21
-0.746063
  0
LINE
  8
0
 10
-25.4057
 20
-0.746063
 11
-25.4763
 21
-0.375992
  0
LINE
  8
0
 10
-25.4763
 20
-0.375992
 11
-25.5
 21
0
  0
LINE
  8
0
 10
-25.5
 20
0
 11
-25.4763
 21
0.375992
  0
LINE
  8
0
 10
-25.4763
 20
0.375992
 11
-25.4057
 21
0.746063
  0
LINE
  8
0
 10
-25.4057
 20
0.746063
 11
-25.2893
 21
1.10437
  0
LINE
  8
0
 10
-25.2893
 20
1.10437
 11
-25.1289
 21
1.44525
  0
LINE
  8
0
 10
-25.1289
 20
1.44525
 11
-24.927
 21
1.76335
  0
LINE
  8
0
 10
-24.927
 20
1.76335
 11
-24.6869
 21
2.05363
  0
LINE
  8
0
 10
-24.6869
 20
2.05363
 11
-24.4123
 21
2.31154
  0
LINE
  8
0
 10
-24.4123
 20
2.31154
 11
-24.1075
 21
2.53297
  0
LINE
  8
0
 10
-24.1075
 20
2.53297
 11
-23.7773
 21
2.71448
  0
LINE
  8
0
 10
-23.7773
 20
2.71448
 11
-23.427
 21
2.85316
  0
LINE
  8
0
 10
-23.427
 20
2.85316
 11
-23.0621
 21
2.94685
  0
LINE
  8
0
 10
-23.0621
 20
2.94685
 11
-22.6884
 21
2.99408
  0
LINE
  8
0
 10
-22.6884
 20
2.99408
 11
-22.3116
 21
2.99408
  0
LINE
  8
0
 10
-22.3116
 20
2.99408
 11
-21.9379
 21
2.94685
  0
LINE
  8
0
 10
-21.9379
 20
2.94685
 11
-21.5729
 21
2.85316
  0
LINE
  8
0
 10
-21.5729
 20
2.85316
 11
-21.2227
 21
2.71448
  0
LINE
  8
0
 10
-21.2227
 20
2.71448
 11
-20.8925
 21
2.53297
  0
LINE
  8
0
 10
-20.8925
 20
2.53297
 11
-20.5877
 21
2.31154
  0
LINE
  8
0
 10
-20.5877
 20
2.31154
 11
-20.3131
 21
2.05363
  0
LINE
  8
0
 10
-20.3131
 20
2.05363
 11
-20.0729
 21
1.76335
  0
LINE
  8
0
 10
-20.0729
 20
1.76335
 11
-19.8711
 21
1.44525
  0
LINE
  8
0
 10
-19.8711
 20
1.44525
 11
-19.7107
 21
1.10437
  0
LINE
  8
0
 10
-19.7107
 20
1.10437
 11
-19.5942
 21
0.746063
  0
LINE
  8
0
 10
-19.5942
 20
0.746063
 11
-19.5237
 21
0.375992
  0
LINE
  8
0
 10
-19.5237
 20
0.375992
 11
-19.5
 21
0
  0
LINE
  8
0
 10
-19.5
 20
0
 11
-19.5237
 21
-0.375992
  0
LINE
  8
0
 10
-19.5237
 20
-0.375992
 11
-19.5942
 21
-0.746063
  0
LINE
  8
0
 10
-19.5942
 20
-0.746063
 11
-19.7107
 21
-1.10437
  0
LINE
  8
0
 10
-19.7107
 20
-1.10437
 11
-19.8711
 21
-1.44525
  0
LINE
  8
0
 10
-19.8711
 20
-1.44525
 11
-20.0729
 21
-1.76335
  0
LINE
  8
0
 10
-20.0729
 20
-1.76335
 11
-20.3131
 21
-2.05363
  0
LINE
  8
0
 10
-20.3131
 20
-2.05363
 11
-20.5877
 21
-2.31154
  0
LINE
  8
0
 10
-20.5877
 20
-2.31154
 11
-20.8925
 21
-2.53297
  0
LINE
  8
0
 10
-20.8925
 20
-2.53297
 11
-21.2227
 21
-2.71448
  0
LINE
  8
0
 10
-21.2227
 20
-2.71448
 11
-21.5729
 21
-2.85316
  0
LINE
  8
0
 10
-21.5729
 20
-2.85316
 11
-21.9379
 21
-2.94685
  0
LINE
  8
0
 10
-21.9379
 20
-2.94685
 11
-22.3116
 21
-2.99408
  0
LINE
  8
0
 10
-22.3116
 20
-2.99408
 11
-22.6884
 21
-2.99408
  0
LINE
  8
0
 10
22.3116
 20
-2.99408
 11
21.9379
 21
-2.94685
  0
LINE
  8
0
 10
21.9379
 20
-2.94685
 11
21.5729
 21
-2.85316
  0
LINE
  8
0
 10
21.5729
 20
-2.85316
 11
21.2227
 21
-2.71448
  0
LINE
  8
0
 10
21.2227
 20
-2.71448
 11
20.8925
 21
-2.53297
  0
LINE
  8
0
 10
20.8925
 20
-2.53297
 11
20.5877
 21
-2.31154
  0
LINE
  8
0
 10
20.5877
 20
-2.31154
 11
20.3131
 21
-2.05363
  0
LINE
  8
0
 10
20.3131
 20
-2.05363
 11
20.0729
 21
-1.76335
  0
LINE
  8
0
 10
20.0729
 20
-1.76335
 11
19.8711
 21
-1.44525
  0
LINE
  8
0
 10
19.8711
 20
-1.44525
 11
19.7107
 21
-1.10437
  0
LINE
  8
0
 10
19.7107
 20
-1.10437
 11
19.5942
 21
-0.746063
  0
LINE
  8
0
 10
19.5942
 20
-0.746063
 11
19.5237
 21
-0.375992
  0
LINE
  8
0
 10
19.5237
 20
-0.375992
 11
19.5
 21
0
  0
LINE
  8
0
 10
19.5
 20
0
 11
19.5237
 21
0.375992
  0
LINE
  8
0
 10
19.5237
 20
0.375992
 11
19.5942
 21
0.746063
  0
LINE
  8
0
 10
19.5942
 20
0.746063
 11
19.7107
 21
1.10437
  0
LINE
  8
0
 10
19.7107
 20
1.10437
 11
19.8711
 21
1.44525
  0
LINE
  8
0
 10
19.8711
 20
1.44525
 11
20.0729
 21
1.76335
  0
LINE
  8
0
 10
20.0729
 20
1.76335
 11
20.3131
 21
2.05363
  0
LINE
  8
0
 10
20.3131
 20
2.05363
 11
20.5877
 21
2.31154
  0
LINE
  8
0
 10
20.5877
 20
2.31154
 11
20.8925
 21
2.53297
  0
LINE
  8
0
 10
20.8925
 20
2.53297
 11
21.2227
 21
2.71448
  0
LINE
  8
0
 10
21.2227
 20
2.71448
 11
21.5729
 21
2.85316
  0
LINE
  8
0
 10
21.5729
 20
2.85316
 11
21.9379
 21
2.94685
  0
LINE
  8
0
 10
21.9379
 20
2.94685
 11
22.3116
 21
2.99408
  0
LINE
  8
0
 10
22.3116
 20
2.99408
 11
22.6884
 21
2.99408
  0
LINE
  8
0
 10
22.6884
 20
2.99408
 11
23.0621
 21
2.94685
  0
LINE
  8
0
 10
23.0621
 20
2.94685
 11
23.427
 21
2.85316
  0
LINE
  8
0
 10
23.427
 20
2.85316
 11
23.7773
 21
2.71448
  0
LINE
  8
0
 10
23.7773
 20
2.71448
 11
24.1075
 21
2.53297
  0
LINE
  8
0
 10
24.1075
 20
2.53297
 11
24.4123
 21
2.31154
  0
LINE
  8
0
 10
24.4123
 20
2.31154
 11
24.6869
 21
2.05363
  0
LINE
  8
0
 10
24.6869
 20
2.05363
 11
24.927
 21
1.76335
  0
LINE
  8
0
 10
24.927
 20
1.76335
 11
25.1289
 21
1.44525
  0
LINE
  8
0
 10
25.1289
 20
1.44525
 11
25.2893
 21
1.10437
  0
LINE
  8
0
 10
25.2893
 20
1.10437
 11
25.4057
 21
0.746063
  0
LINE
  8
0
 10
25.4057
 20
0.746063
 11
25.4763
 21
0.375992
  0
LINE
  8
0
 10
25.4763
 20
0.375992
 11
25.5
 21
0
  0
LINE
  8
0
 10
25.5
 20
0
 11
25.4763
 21
-0.375992
  0
LINE
  8
0
 10
25.4763
 20
-0.375992
 11
25.4057
 21
-0.746063
  0
LINE
  8
0
 10
25.4057
 20
-0.746063
 11
25.2893
 21
-1.10437
  0
LINE
  8
0
 10
25.2893
 20
-1.10437
 11
25.1289
 21
-1.44525
  0
LINE
  8
0
 10
25.1289
 20
-1.44525
 11
24.927
 21
-1.76335
  0
LINE
  8
0
 10
24.927
 20
-1.76335
 11
24.6869
 21
-2.05363
  0
LINE
  8
0
 10
24.6869
 20
-2.05363
 11
24.4123
 21
-2.31154
  0
LINE
  8
0
 10
24.4123
 20
-2.31154
 11
24.1075
 21
-2.53297
  0
LINE
  8
0
 10
24.1075
 20
-2.53297
 11
23.7773
 21
-2.71448
  0
LINE
  8
0
 10
23.7773
 20
-2.71448
 11
23.427
 21
-2.85316
  0
LINE
  8
0
 10
23.427
 20
-2.85316
 11
23.0621
 21
-2.94685
  0
LINE
  8
0
 10
23.0621
 20
-2.94685
 11
22.6884
 21
-2.99408
  0
LINE
  8
0
 10
22.6884
 20
-2.99408
 11
22.3116
 21
-2.99408
  0
LINE
  8
0
 10
22.4058
 20
-8.99704
 11
22.2189
 21
-8.97342
  0
LINE
  8
0
 10
22.2189
 20
-8.97342
 11
22.0365
 21
-8.92657
  0
LINE
  8
0
 10
22.0365
 20
-8.92657
 11
21.8613
 21
-8.85724
  0
LINE
  8
0
 10
21.8613
 20
-8.85724
 11
21.6963
 21
-8.76648
  0
LINE
  8
0
 10
21.6963
 20
-8.76648
 11
21.5439
 21
-8.65576
  0
LINE
  8
0
 10
21.5439
 20
-8.65576
 11
21.4065
 21
-8.52681
  0
LINE
  8
0
 10
21.4065
 20
-8.52681
 11
21.2865
 21
-8.38167
  0
LINE
  8
0
 10
21.2865
 20
-8.38167
 11
21.1855
 21
-8.22263
  0
LINE
  8
0
 10
21.1855
 20
-8.22263
 11
21.1053
 21
-8.05219
  0
LINE
  8
0
 10
21.1053
 20
-8.05219
 11
21.0471
 21
-7.87303
  0
LINE
  8
0
 10
21.0471
 20
-7.87303
 11
21.0118
 21
-7.68799
  0
LINE
  8
0
 10
21.0118
 20
-7.68799
 11
21
 21
-7.5
  0
LINE
  8
0
 10
21
 20
-7.5
 11
21.0118
 21
-7.312
  0
LINE
  8
0
 10
21.0118
 20
-7.312
 11
21.0471
 21
-7.12695
  0
LINE
  8
0
 10
21.0471
 20
-7.12695
 11
21.1053
 21
-6.9478
  0
LINE
  8
0
 10
21.1053
 20
-6.9478
 11
21.1855
 21
-6.77736
  0
LINE
  8
0
 10
21.1855
 20
-6.77736
 11
21.2865
 21
-6.61832
  0
LINE
  8
0
 10
21.2865
 20
-6.61832
 11
21.4065
 21
-6.47318
  0
LINE
  8
0
 10
21.4065
 20
-6.47318
 11
21.5439
 21
-6.34422
  0
LINE
  8
0
 10
21.5439
 20
-6.34422
 11
21.6963
 21
-6.23351
  0
LINE
  8
0
 10
21.6963
 20
-6.23351
 11
21.8613
 21
-6.14275
  0
LINE
  8
0
 10
21.8613
 20
-6.14275
 11
22.0365
 21
-6.07341
  0
LINE
  8
0
 10
22.0365
 20
-6.07341
 11
22.2189
 21
-6.02657
  0
LINE
  8
0
 10
22.2189
 20
-6.02657
 11
22.4058
 21
-6.00294
  0
LINE
  8
0
 10
22.4058
 20
-6.00294
 11
22.5942
 21
-6.00294
  0
LINE
  8
0
 10
22.5942
 20
-6.00294
 11
22.7811
 21
-6.02657
  0
LINE
  8
0
 10
22.7811
 20
-6.02657
 11
22.9635
 21
-6.07341
  0
LINE
  8
0
 10
22.9635
 20
-6.07341
 11
23.1387
 21
-6.14275
  0
LINE
  8
0
 10
23.1387
 20
-6.14275
 11
23.3037
 21
-6.23351
  0
LINE
  8
0
 10
23.3037
 20
-6.23351
 11
23.4561
 21
-6.34422
  0
LINE
  8
0
 10
23.4561
 20
-6.34422
 11
23.5934
 21
-6.47318
  0
LINE
  8
0
 10
23.5934
 20
-6.47318
 11
23.7135
 21
-6.61832
  0
LINE
  8
0
 10
23.7135
 20
-6.61832
 11
23.8145
 21
-6.77736
  0
LINE
  8
0
 10
23.8145
 20
-6.77736
 11
23.8947
 21
-6.9478
  0
LINE
  8
0
 10
23.8947
 20
-6.9478
 11
23.9529
 21
-7.12695
  0
LINE
  8
0
 10
23.9529
 20
-7.12695
 11
23.9882
 21
-7.312
  0
LINE
  8
0
 10
23.9882
 20
-7.312
 11
24
 21
-7.5
  0
LINE
  8
0
 10
24
 20
-7.5
 11
23.9882
 21
-7.68799
  0
LINE
  8
0
 10
23.9882
 20
-7.68799
 11
23.9529
 21
-7.87303
  0
LINE
  8
0
 10
23.9529
 20
-7.87303
 11
23.8947
 21
-8.05219
  0
LINE
  8
0
 10
23.8947
 20
-8.05219
 11
23.8145
 21
-8.22263
  0
LINE
  8
0
 10
23.8145
 20
-8.22263
 11
23.7135
 21
-8.38167
  0
LINE
  8
0
 10
23.7135
 20
-8.38167
 11
23.5934
 21
-8.52681
  0
LINE
  8
0
 10
23.5934
 20
-8.52681
 11
23.4561
 21
-8.65576
  0
LINE
  8
0
 10
23.4561
 20
-8.65576
 11
23.3037
 21
-8.76648
  0
LINE
  8
0
 10
23.3037
 20
-8.76648
 11
23.1387
 21
-8.85724
  0
LINE
  8
0
 10
23.1387
 20
-8.85724
 11
22.9635
 21
-8.92657
  0
LINE
  8
0
 10
22.9635
 20
-8.92657
 11
22.7811
 21
-8.97342
  0
LINE
  8
0
 10
22.7811
 20
-8.97342
 11
22.5942
 21
-8.99704
  0
LINE
  8
0
 10
22.5942
 20
-8.99704
 11
22.4058
 21
-8.99704
  0
LINE
  8
0
 10
-22.5942
 20
-8.99704
 11
-22.7811
 21
-8.97342
  0
LINE
  8
0
 10
-22.7811
 20
-8.97342
 11
-22.9635
 21
-8.92657
  0
LINE
  8
0
 10
-22.9635
 20
-8.92657
 11
-23.1387
 21
-8.85724
  0
LINE
  8
0
 10
-23.1387
 20
-8.85724
 11
-23.3037
 21
-8.76648
  0
LINE
  8
0
 10
-23.3037
 20
-8.76648
 11
-23.4561
 21
-8.65576
  0
LINE
  8
0
 10
-23.4561
 20
-8.65576
 11
-23.5934
 21
-8.52681
  0
LINE
  8
0
 10
-23.5934
 20
-8.52681
 11
-23.7135
 21
-8.38167
  0
LINE
  8
0
 10
-23.7135
 20
-8.38167
 11
-23.8145
 21
-8.22263
  0
LINE
  8
0
 10
-23.8145
 20
-8.22263
 11
-23.8947
 21
-8.05219
  0
LINE
  8
0
 10
-23.8947
 20
-8.05219
 11
-23.9529
 21
-7.87303
  0
LINE
  8
0
 10
-23.9529
 20
-7.87303
 11
-23.9882
 21
-7.68799
  0
LINE
  8
0
 10
-23.9882
 20
-7.68799
 11
-24
 21
-7.5
  0
LINE
  8
0
 10
-24
 20
-7.5
 11
-23.9882
 21
-7.312
  0
LINE
  8
0
 10
-23.9882
 20
-7.312
 11
-23.9529
 21
-7.12695
  0
LINE
  8
0
 10
-23.9529
 20
-7.12695
 11
-23.8947
 21
-6.9478
  0
LINE
  8
0
 10
-23.8947
 20
-6.9478
 11
-23.8145
 21
-6.77736
  0
LINE
  8
0
 10
-23.8145
 20
-6.77736
 11
-23.7135
 21
-6.61832
  0
LINE
  8
0
 10
-23.7135
 20
-6.61832
 11
-23.5934
 21
-6.47318
  0
LINE
  8
0
 10
-23.5934
 20
-6.47318
 11
-23.4561
 21
-6.34422
  0
LINE
  8
0
 10
-23.4561
 20
-6.34422
 11
-23.3037
 21
-6.23351
  0
LINE
  8
0
 10
-23.3037
 20
-6.23351
 11
-23.1387
 21
-6.14275
  0
LINE
  8
0
 10
-23.1387
 20
-6.14275
 11
-22.9635
 21
-6.07341
  0
LINE
  8
0
 10
-22.9635
 20
-6.07341
 11
-22.7811
 21
-6.02657
  0
LINE
  8
0
 10
-22.7811
 20
-6.02657
 11
-22.5942
 21
-6.00294
  0
LINE
  8
0
 10
-22.5942
 20
-6.00294
 11
-22.4058
 21
-6.00294
  0
LINE
  8
0
 10
-22.4058
 20
-6.00294
 11
-22.2189
 21
-6.02657
  0
LINE
  8
0
 10
-22.2189
 20
-6.02657
 11
-22.0365
 21
-6.07341
  0
LINE
  8
0
 10
-22.0365
 20
-6.07341
 11
-21.8613
 21
-6.14275
  0
LINE
  8
0
 10
-21.8613
 20
-6.14275
 11
-21.6963
 21
-6.23351
  0
LINE
  8
0
 10
-21.6963
 20
-6.23351
 11
-21.5439
 21
-6.34422
  0
LINE
  8
0
 10
-21.5439
 20
-6.34422
 11
-21.4065
 21
-6.47318
  0
LINE
  8
0
 10
-21.4065
 20
-6.47318
 11
-21.2865
 21
-6.61832
  0
LINE
  8
0
 10
-21.2865
 20
-6.61832
 11
-21.1855
 21
-6.77736
  0
LINE
  8
0
 10
-21.1855
 20
-6.77736
 11
-21.1053
 21
-6.9478
  0
LINE
  8
0
 10
-21.1053
 20
-6.9478
 11
-21.0471
 21
-7.12695
  0
LINE
  8
0
 10
-21.0471
 20
-7.12695
 11
-21.0118
 21
-7.312
  0
LINE
  8
0
 10
-21.0118
 20
-7.312
 11
-21
 21
-7.5
  0
LINE
  8
0
 10
-21
 20
-7.5
 11
-21.0118
 21
-7.68799
  0
LINE
  8
0
 10
-21.0118
 20
-7.68799
 11
-21.0471
 21
-7.87303
  0
LINE
  8
0
 10
-21.0471
 20
-7.87303
 11
-21.1053
 21
-8.05219
  0
LINE
  8
0
 10
-21.1053
 20
-8.05219
 11
-21.1855
 21
-8.22263
  0
LINE
  8
0
 10
-21.1855
 20
-8.22263
 11
-21.2865
 21
-8.38167
  0
LINE
  8
0
 10
-21.2865
 20
-8.38167
 11
-21.4065
 21
-8.52681
  0
LINE
  8
0
 10
-21.4065
 20
-8.52681
 11
-21.5439
 21
-8.65576
  0
LINE
  8
0
 10
-21.5439
 20
-8.65576
 11
-21.6963
 21
-8.76648
  0
LINE
  8
0
 10
-21.6963
 20
-8.76648
 11
-21.8613
 21
-8.85724
  0
LINE
  8
0
 10
-21.8613
 20
-8.85724
 11
-22.0365
 21
-8.92657
  0
LINE
  8
0
 10
-22.0365
 20
-8.92657
 11
-22.2189
 21
-8.97342
  0
LINE
  8
0
 10
-22.2189
 20
-8.97342
 11
-22.4058
 21
-8.99704
  0
LINE
  8
0
 10
-22.4058
 20
-8.99704
 11
-22.5942
 21
-8.99704
  0
LINE
  8
0
 10
22.3116
 20
-17.9941
 11
21.9379
 21
-17.9469
  0
LINE
  8
0
 10
21.9379
 20
-17.9469
 11
21.5729
 21
-17.8532
  0
LINE
  8
0
 10
21.5729
 20
-17.8532
 11
21.2227
 21
-17.7145
  0
LINE
  8
0
 10
21.2227
 20
-17.7145
 11
20.8925
 21
-17.533
  0
LINE
  8
0
 10
20.8925
 20
-17.533
 11
20.5877
 21
-17.3115
  0
LINE
  8
0
 10
20.5877
 20
-17.3115
 11
20.3131
 21
-17.0536
  0
LINE
  8
0
 10
20.3131
 20
-17.0536
 11
20.0729
 21
-16.7634
  0
LINE
  8
0
 10
20.0729
 20
-16.7634
 11
19.8711
 21
-16.4453
  0
LINE
  8
0
 10
19.8711
 20
-16.4453
 11
19.7107
 21
-16.1044
  0
LINE
  8
0
 10
19.7107
 20
-16.1044
 11
19.5942
 21
-15.7461
  0
LINE
  8
0
 10
19.5942
 20
-15.7461
 11
19.5237
 21
-15.376
  0
LINE
  8
0
 10
19.5237
 20
-15.376
 11
19.5
 21
-15
  0
LINE
  8
0
 10
19.5
 20
-15
 11
19.5237
 21
-14.624
  0
LINE
  8
0
 10
19.5237
 20
-14.624
 11
19.5942
 21
-14.2539
  0
LINE
  8
0
 10
19.5942
 20
-14.2539
 11
19.7107
 21
-13.8956
  0
LINE
  8
0
 10
19.7107
 20
-13.8956
 11
19.8711
 21
-13.5547
  0
LINE
  8
0
 10
19.8711
 20
-13.5547
 11
20.0729
 21
-13.2366
  0
LINE
  8
0
 10
20.0729
 20
-13.2366
 11
20.3131
 21
-12.9464
  0
LINE
  8
0
 10
20.3131
 20
-12.9464
 11
20.5877
 21
-12.6884
  0
LINE
  8
0
 10
20.5877
 20
-12.6884
 11
20.8925
 21
-12.467
  0
LINE
  8
0
 10
20.8925
 20
-12.467
 11
21.2227
 21
-12.2855
  0
LINE
  8
0
 10
21.2227
 20
-12.2855
 11
21.5729
 21
-12.1468
  0
LINE
  8
0
 10
21.5729
 20
-12.1468
 11
21.9379
 21
-12.0531
  0
LINE
  8
0
 10
21.9379
 20
-12.0531
 11
22.3116
 21
-12.0059
  0
LINE
  8
0
 10
22.3116
 20
-12.0059
 11
22.6884
 21
-12.0059
  0
LINE
  8
0
 10
22.6884
 20
-12.0059
 11
23.0621
 21
-12.0531
  0
LINE
  8
0
 10
23.0621
 20
-12.0531
 11
23.427
 21
-12.1468
  0
LINE
  8
0
 10
23.427
 20
-12.1468
 11
23.7773
 21
-12.2855
  0
LINE
  8
0
 10
23.7773
 20
-12.2855
 11
24.1075
 21
-12.467
  0
LINE
  8
0
 10
24.1075
 20
-12.467
 11
24.4123
 21
-12.6884
  0
LINE
  8
0
 10
24.4123
 20
-12.6884
 11
24.6869
 21
-12.9464
  0
LINE
  8
0
 10
24.6869
 20
-12.9464
 11
24.927
 21
-13.2366
  0
LINE
  8
0
 10
24.927
 20
-13.2366
 11
25.1289
 21
-13.5547
  0
LINE
  8
0
 10
25.1289
 20
-13.5547
 11
25.2893
 21
-13.8956
  0
LINE
  8
0
 10
25.2893
 20
-13.8956
 11
25.4057
 21
-14.2539
  0
LINE
  8
0
 10
25.4057
 20
-14.2539
 11
25.4763
 21
-14.624
  0
LINE
  8
0
 10
25.4763
 20
-14.624
 11
25.5
 21
-15
  0
LINE
  8
0
 10
25.5
 20
-15
 11
25.4763
 21
-15.376
  0
LINE
  8
0
 10
25.4763
 20
-15.376
 11
25.4057
 21
-15.7461
  0
LINE
  8
0
 10
25.4057
 20
-15.7461
 11
25.2893
 21
-16.1044
  0
LINE
  8
0
 10
25.2893
 20
-16.1044
 11
25.1289
 21
-16.4453
  0
LINE
  8
0
 10
25.1289
 20
-16.4453
 11
24.927
 21
-16.7634
  0
LINE
  8
0
 10
24.927
 20
-16.7634
 11
24.6869
 21
-17.0536
  0
LINE
  8
0
 10
24.6869
 20
-17.0536
 11
24.4123
 21
-17.3115
  0
LINE
  8
0
 10
24.4123
 20
-17.3115
 11
24.1075
 21
-17.533
  0
LINE
  8
0
 10
24.1075
 20
-17.533
 11
23.7773
 21
-17.7145
  0
LINE
  8
0
 10
23.7773
 20
-17.7145
 11
23.427
 21
-17.8532
  0
LINE
  8
0
 10
23.427
 20
-17.8532
 11
23.0621
 21
-17.9469
  0
LINE
  8
0
 10
23.0621
 20
-17.9469
 11
22.6884
 21
-17.9941
  0
LINE
  8
0
 10
22.6884
 20
-17.9941
 11
22.3116
 21
-17.9941
  0
LINE
  8
0
 10
-22.6884
 20
-17.9941
 11
-23.0621
 21
-17.9469
  0
LINE
  8
0
 10
-23.0621
 20
-17.9469
 11
-23.427
 21
-17.8532
  0
LINE
  8
0
 10
-23.427
 20
-17.8532
 11
-23.7773
 21
-17.7145
  0
LINE
  8
0
 10
-23.7773
 20
-17.7145
 11
-24.1075
 21
-17.533
  0
LINE
  8
0
 10
-24.1075
 20
-17.533
 11
-24.4123
 21
-17.3115
  0
LINE
  8
0
 10
-24.4123
 20
-17.3115
 11
-24.6869
 21
-17.0536
  0
LINE
  8
0
 10
-24.6869
 20
-17.0536
 11
-24.927
 21
-16.7634
  0
LINE
  8
0
 10
-24.927
 20
-16.7634
 11
-25.1289
 21
-16.4453
  0
LINE
  8
0
 10
-25.1289
 20
-16.4453
 11
-25.2893
 21
-16.1044
  0
LINE
  8
0
 10
-25.2893
 20
-16.1044
 11
-25.4057
 21
-15.7461
  0
LINE
  8
0
 10
-25.4057
 20
-15.7461
 11
-25.4763
 21
-15.376
  0
LINE
  8
0
 10
-25.4763
 20
-15.376
 11
-25.5
 21
-15
  0
LINE
  8
0
 10
-25.5
 20
-15
 11
-25.4763
 21
-14.624
  0
LINE
  8
0
 10
-25.4763
 20
-14.624
 11
-25.4057
 21
-14.2539
  0
LINE
  8
0
 10
-25.4057
 20
-14.2539
 11
-25.2893
 21
-13.8956
  0
LINE
  8
0
 10
-25.2893
 20
-13.8956
 11
-25.1289
 21
-13.5547
  0
LINE
  8
0
 10
-25.1289
 20
-13.5547
 11
-24.927
 21
-13.2366
  0
LINE
  8
0
 10
-24.927
 20
-13.2366
 11
-24.6869
 21
-12.9464
  0
LINE
  8
0
 10
-24.6869
 20
-12.9464
 11
-24.4123
 21
-12.6884
  0
LINE
  8
0
 10
-24.4123
 20
-12.6884
 11
-24.1075
 21
-12.467
  0
LINE
  8
0
 10
-24.1075
 20
-12.467
 11
-23.7773
 21
-12.2855
  0
LINE
  8
0
 10
-23.7773
 20
-12.2855
 11
-23.427
 21
-12.1468
  0
LINE
  8
0
 10
-23.427
 20
-12.1468
 11
-23.0621
 21
-12.0531
  0
LINE
  8
0
 10
-23.0621
 20
-12.0531
 11
-22.6884
 21
-12.0059
  0
LINE
  8
0
 10
-22.6884
 20
-12.0059
 11
-22.3116
 21
-12.0059
  0
LINE
  8
0
 10
-22.3116
 20
-12.0059
 11
-21.9379
 21
-12.0531
  0
LINE
  8
0
 10
-21.9379
 20
-12.0531
 11
-21.5729
 21
-12.1468
  0
LINE
  8
0
 10
-21.5729
 20
-12.1468
 11
-21.2227
 21
-12.2855
  0
LINE
  8
0
 10
-21.2227
 20
-12.2855
 11
-20.8925
 21
-12.467
  0
LINE
  8
0
 10
-20.8925
 20
-12.467
 11
-20.5877
 21
-12.6884
  0
LINE
  8
0
 10
-20.5877
 20
-12.6884
 11
-20.3131
 21
-12.9464
  0
LINE
  8
0
 10
-20.3131
 20
-12.9464
 11
-20.0729
 21
-13.2366
  0
LINE
  8
0
 10
-20.0729
 20
-13.2366
 11
-19.8711
 21
-13.5547
  0
LINE
  8
0
 10
-19.8711
 20
-13.5547
 11
-19.7107
 21
-13.8956
  0
LINE
  8
0
 10
-19.7107
 20
-13.8956
 11
-19.5942
 21
-14.2539
  0
LINE
  8
0
 10
-19.5942
 20
-14.2539
 11
-19.5237
 21
-14.624
  0
LINE
  8
0
 10
-19.5237
 20
-14.624
 11
-19.5
 21
-15
  0
LINE
  8
0
 10
-19.5
 20
-15
 11
-19.5237
 21
-15.376
  0
LINE
  8
0
 10
-19.5237
 20
-15.376
 11
-19.5942
 21
-15.7461
  0
LINE
  8
0
 10
-19.5942
 20
-15.7461
 11
-19.7107
 21
-16.1044
  0
LINE
  8
0
 10
-19.7107
 20
-16.1044
 11
-19.8711
 21
-16.4453
  0
LINE
  8
0
 10
-19.8711
 20
-16.4453
 11
-20.0729
 21
-16.7634
  0
LINE
  8
0
 10
-20.0729
 20
-16.7634
 11
-20.3131
 21
-17.0536
  0
LINE
  8
0
 10
-20.3131
 20
-17.0536
 11
-20.5877
 21
-17.3115
  0
LINE
  8
0
 10
-20.5877
 20
-17.3115
 11
-20.8925
 21
-17.533
  0
LINE
  8
0
 10
-20.8925
 20
-17.533
 11
-21.2227
 21
-17.7145
  0
LINE
  8
0
 10
-21.2227
 20
-17.7145
 11
-21.5729
 21
-17.8532
  0
LINE
  8
0
 10
-21.5729
 20
-17.8532
 11
-21.9379
 21
-17.9469
  0
LINE
  8
0
 10
-21.9379
 20
-17.9469
 11
-22.3116
 21
-17.9941
  0
LINE
  8
0
 10
-22.3116
 20
-17.9941
 11
-22.6884
 21
-17.9941
  0
LINE
  8
0
 10
-0.113022
 20
-24.2964
 11
-0.33728
 21
-24.2681
  0
LINE
  8
0
 10
-0.33728
 20
-24.2681
 11
-0.556229
 21
-24.2119
  0
LINE
  8
0
 10
-0.556229
 20
-24.2119
 11
-0.766388
 21
-24.1287
  0
LINE
  8
0
 10
-0.766388
 20
-24.1287
 11
-0.964478
 21
-24.0198
  0
LINE
  8
0
 10
-0.964478
 20
-24.0198
 11
-1.14735
 21
-23.8869
  0
LINE
  8
0
 10
-1.14735
 20
-23.8869
 11
-1.31213
 21
-23.7322
  0
LINE
  8
0
 10
-1.31213
 20
-23.7322
 11
-1.45622
 21
-23.558
  0
LINE
  8
0
 10
-1.45622
 20
-23.558
 11
-1.57735
 21
-23.3672
  0
LINE
  8
0
 10
-1.57735
 20
-23.3672
 11
-1.67358
 21
-23.1626
  0
LINE
  8
0
 10
-1.67358
 20
-23.1626
 11
-1.74344
 21
-22.9476
  0
LINE
  8
0
 10
-1.74344
 20
-22.9476
 11
-1.7858
 21
-22.7256
  0
LINE
  8
0
 10
-1.7858
 20
-22.7256
 11
-1.79999
 21
-22.5
  0
LINE
  8
0
 10
-1.79999
 20
-22.5
 11
-1.7858
 21
-22.2744
  0
LINE
  8
0
 10
-1.7858
 20
-22.2744
 11
-1.74344
 21
-22.0524
  0
LINE
  8
0
 10
-1.74344
 20
-22.0524
 11
-1.67358
 21
-21.8374
  0
LINE
  8
0
 10
-1.67358
 20
-21.8374
 11
-1.57735
 21
-21.6328
  0
LINE
  8
0
 10
-1.57735
 20
-21.6328
 11
-1.45622
 21
-21.442
  0
LINE
  8
0
 10
-1.45622
 20
-21.442
 11
-1.31213
 21
-21.2678
  0
LINE
  8
0
 10
-1.31213
 20
-21.2678
 11
-1.14735
 21
-21.1131
  0
LINE
  8
0
 10
-1.14735
 20
-21.1131
 11
-0.964478
 21
-20.9802
  0
LINE
  8
0
 10
-0.964478
 20
-20.9802
 11
-0.766388
 21
-20.8713
  0
LINE
  8
0
 10
-0.766388
 20
-20.8713
 11
-0.556229
 21
-20.7881
  0
LINE
  8
0
 10
-0.556229
 20
-20.7881
 11
-0.33728
 21
-20.7319
  0
LINE
  8
0
 10
-0.33728
 20
-20.7319
 11
-0.113022
 21
-20.7036
  0
LINE
  8
0
 10
-0.113022
 20
-20.7036
 11
0.113022
 21
-20.7036
  0
LINE
  8
0
 10
0.113022
 20
-20.7036
 11
0.33728
 21
-20.7319
  0
LINE
  8
0
 10
0.33728
 20
-20.7319
 11
0.556229
 21
-20.7881
  0
LINE
  8
0
 10
0.556229
 20
-20.7881
 11
0.766388
 21
-20.8713
  0
LINE
  8
0
 10
0.766388
 20
-20.8713
 11
0.964478
 21
-20.9802
  0
LINE
  8
0
 10
0.964478
 20
-20.9802
 11
1.14735
 21
-21.1131
  0
LINE
  8
0
 10
1.14735
 20
-21.1131
 11
1.31213
 21
-21.2678
  0
LINE
  8
0
 10
1.31213
 20
-21.2678
 11
1.45622
 21
-21.442
  0
LINE
  8
0
 10
1.45622
 20
-21.442
 11
1.57735
 21
-21.6328
  0
LINE
  8
0
 10
1.57735
 20
-21.6328
 11
1.67358
 21
-21.8374
  0
LINE
  8
0
 10
1.67358
 20
-21.8374
 11
1.74344
 21
-22.0524
  0
LINE
  8
0
 10
1.74344
 20
-22.0524
 11
1.7858
 21
-22.2744
  0
LINE
  8
0
 10
1.7858
 20
-22.2744
 11
1.79999
 21
-22.5
  0
LINE
  8
0
 10
1.79999
 20
-22.5
 11
1.7858
 21
-22.7256
  0
LINE
  8
0
 10
1.7858
 20
-22.7256
 11
1.74344
 21
-22.9476
  0
LINE
  8
0
 10
1.74344
 20
-22.9476
 11
1.67358
 21
-23.1626
  0
LINE
  8
0
 10
1.67358
 20
-23.1626
 11
1.57735
 21
-23.3672
  0
LINE
  8
0
 10
1.57735
 20
-23.3672
 11
1.45622
 21
-23.558
  0
LINE
  8
0
 10
1.45622
 20
-23.558
 11
1.31213
 21
-23.7322
  0
LINE
  8
0
 10
1.31213
 20
-23.7322
 11
1.14735
 21
-23.8869
  0
LINE
  8
0
 10
1.14735
 20
-23.8869
 11
0.964478
 21
-24.0198
  0
LINE
  8
0
 10
0.964478
 20
-24.0198
 11
0.766388
 21
-24.1287
  0
LINE
  8
0
 10
0.766388
 20
-24.1287
 11
0.556229
 21
-24.2119
  0
LINE
  8
0
 10
0.556229
 20
-24.2119
 11
0.33728
 21
-24.2681
  0
LINE
  8
0
 10
0.33728
 20
-24.2681
 11
0.113022
 21
-24.2964
  0
LINE
  8
0
 10
0.113022
 20
-24.2964
 11
-0.113022
 21
-24.2964
  0
LINE
  8
0
 10
22.4058
 20
-23.997
 11
22.2189
 21
-23.9734
  0
LINE
  8
0
 10
22.2189
 20
-23.9734
 11
22.0365
 21
-23.9266
  0
LINE
  8
0
 10
22.0365
 20
-23.9266
 11
21.8613
 21
-23.8572
  0
LINE
  8
0
 10
21.8613
 20
-23.8572
 11
21.6963
 21
-23.7665
  0
LINE
  8
0
 10
21.6963
 20
-23.7665
 11
21.5439
 21
-23.6558
  0
LINE
  8
0
 10
21.5439
 20
-23.6558
 11
21.4065
 21
-23.5268
  0
LINE
  8
0
 10
21.4065
 20
-23.5268
 11
21.2865
 21
-23.3817
  0
LINE
  8
0
 10
21.2865
 20
-23.3817
 11
21.1855
 21
-23.2226
  0
LINE
  8
0
 10
21.1855
 20
-23.2226
 11
21.1053
 21
-23.0522
  0
LINE
  8
0
 10
21.1053
 20
-23.0522
 11
21.0471
 21
-22.873
  0
LINE
  8
0
 10
21.0471
 20
-22.873
 11
21.0118
 21
-22.688
  0
LINE
  8
0
 10
21.0118
 20
-22.688
 11
21
 21
-22.5
  0
LINE
  8
0
 10
21
 20
-22.5
 11
21.0118
 21
-22.312
  0
LINE
  8
0
 10
21.0118
 20
-22.312
 11
21.0471
 21
-22.127
  0
LINE
  8
0
 10
21.0471
 20
-22.127
 11
21.1053
 21
-21.9478
  0
LINE
  8
0
 10
21.1053
 20
-21.9478
 11
21.1855
 21
-21.7774
  0
LINE
  8
0
 10
21.1855
 20
-21.7774
 11
21.2865
 21
-21.6183
  0
LINE
  8
0
 10
21.2865
 20
-21.6183
 11
21.4065
 21
-21.4732
  0
LINE
  8
0
 10
21.4065
 20
-21.4732
 11
21.5439
 21
-21.3442
  0
LINE
  8
0
 10
21.5439
 20
-21.3442
 11
21.6963
 21
-21.2335
  0
LINE
  8
0
 10
21.6963
 20
-21.2335
 11
21.8613
 21
-21.1427
  0
LINE
  8
0
 10
21.8613
 20
-21.1427
 11
22.0365
 21
-21.0734
  0
LINE
  8
0
 10
22.0365
 20
-21.0734
 11
22.2189
 21
-21.0266
  0
LINE
  8
0
 10
22.2189
 20
-21.0266
 11
22.4058
 21
-21.003
  0
LINE
  8
0
 10
22.4058
 20
-21.003
 11
22.5942
 21
-21.003
  0
LINE
  8
0
 10
22.5942
 20
-21.003
 11
22.7811
 21
-21.0266
  0
LINE
  8
0
 10
22.7811
 20
-21.0266
 11
22.9635
 21
-21.0734
  0
LINE
  8
0
 10
22.9635
 20
-21.0734
 11
23.1387
 21
-21.1427
  0
LINE
  8
0
 10
23.1387
 20
-21.1427
 11
23.3037
 21
-21.2335
  0
LINE
  8
0
 10
23.3037
 20
-21.2335
 11
23.4561
 21
-21.3442
  0
LINE
  8
0
 10
23.4561
 20
-21.3442
 11
23.5934
 21
-21.4732
  0
LINE
  8
0
 10
23.5934
 20
-21.4732
 11
23.7135
 21
-21.6183
  0
LINE
  8
0
 10
23.7135
 20
-21.6183
 11
23.8145
 21
-21.7774
  0
LINE
  8
0
 10
23.8145
 20
-21.7774
 11
23.8947
 21
-21.9478
  0
LINE
  8
0
 10
23.8947
 20
-21.9478
 11
23.9529
 21
-22.127
  0
LINE
  8
0
 10
23.9529
 20
-22.127
 11
23.9882
 21
-22.312
  0
LINE
  8
0
 10
23.9882
 20
-22.312
 11
24
 21
-22.5
  0
LINE
  8
0
 10
24
 20
-22.5
 11
23.9882
 21
-22.688
  0
LINE
  8
0
 10
23.9882
 20
-22.688
 11
23.9529
 21
-22.873
  0
LINE
  8
0
 10
23.9529
 20
-22.873
 11
23.8947
 21
-23.0522
  0
LINE
  8
0
 10
23.8947
 20
-23.0522
 11
23.8145
 21
-23.2226
  0
LINE
  8
0
 10
23.8145
 20
-23.2226
 11
23.7135
 21
-23.3817
  0
LINE
  8
0
 10
23.7135
 20
-23.3817
 11
23.5934
 21
-23.5268
  0
LINE
  8
0
 10
23.5934
 20
-23.5268
 11
23.4561
 21
-23.6558
  0
LINE
  8
0
 10
23.4561
 20
-23.6558
 11
23.3037
 21
-23.7665
  0
LINE
  8
0
 10
23.3037
 20
-23.7665
 11
23.1387
 21
-23.8572
  0
LINE
  8
0
 10
23.1387
 20
-23.8572
 11
22.9635
 21
-23.9266
  0
LINE
  8
0
 10
22.9635
 20
-23.9266
 11
22.7811
 21
-23.9734
  0
LINE
  8
0
 10
22.7811
 20
-23.9734
 11
22.5942
 21
-23.997
  0
LINE
  8
0
 10
22.5942
 20
-23.997
 11
22.4058
 21
-23.997
  0
LINE
  8
0
 10
-22.5942
 20
-23.997
 11
-22.7811
 21
-23.9734
  0
LINE
  8
0
 10
-22.7811
 20
-23.9734
 11
-22.9635
 21
-23.9266
  0
LINE
  8
0
 10
-22.9635
 20
-23.9266
 11
-23.1387
 21
-23.8572
  0
LINE
  8
0
 10
-23.1387
 20
-23.8572
 11
-23.3037
 21
-23.7665
  0
LINE
  8
0
 10
-23.3037
 20
-23.7665
 11
-23.4561
 21
-23.6558
  0
LINE
  8
0
 10
-23.4561
 20
-23.6558
 11
-23.5934
 21
-23.5268
  0
LINE
  8
0
 10
-23.5934
 20
-23.5268
 11
-23.7135
 21
-23.3817
  0
LINE
  8
0
 10
-23.7135
 20
-23.3817
 11
-23.8145
 21
-23.2226
  0
LINE
  8
0
 10
-23.8145
 20
-23.2226
 11
-23.8947
 21
-23.0522
  0
LINE
  8
0
 10
-23.8947
 20
-23.0522
 11
-23.9529
 21
-22.873
  0
LINE
  8
0
 10
-23.9529
 20
-22.873
 11
-23.9882
 21
-22.688
  0
LINE
  8
0
 10
-23.9882
 20
-22.688
 11
-24
 21
-22.5
  0
LINE
  8
0
 10
-24
 20
-22.5
 11
-23.9882
 21
-22.312
  0
LINE
  8
0
 10
-23.9882
 20
-22.312
 11
-23.9529
 21
-22.127
  0
LINE
  8
0
 10
-23.9529
 20
-22.127
 11
-23.8947
 21
-21.9478
  0
LINE
  8
0
 10
-23.8947
 20
-21.9478
 11
-23.8145
 21
-21.7774
  0
LINE
  8
0
 10
-23.8145
 20
-21.7774
 11
-23.7135
 21
-21.6183
  0
LINE
  8
0
 10
-23.7135
 20
-21.6183
 11
-23.5934
 21
-21.4732
  0
LINE
  8
0
 10
-23.5934
 20
-21.4732
 11
-23.4561
 21
-21.3442
  0
LINE
  8
0
 10
-23.4561
 20
-21.3442
 11
-23.3037
 21
-21.2335
  0
LINE
  8
0
 10
-23.3037
 20
-21.2335
 11
-23.1387
 21
-21.1427
  0
LINE
  8
0
 10
-23.1387
 20
-21.1427
 11
-22.9635
 21
-21.0734
  0
LINE
  8
0
 10
-22.9635
 20
-21.0734
 11
-22.7811
 21
-21.0266
  0
LINE
  8
0
 10
-22.7811
 20
-21.0266
 11
-22.5942
 21
-21.003
  0
LINE
  8
0
 10
-22.5942
 20
-21.003
 11
-22.4058
 21
-21.003
  0
LINE
  8
0
 10
-22.4058
 20
-21.003
 11
-22.2189
 21
-21.0266
  0
LINE
  8
0
 10
-22.2189
 20
-21.0266
 11
-22.0365
 21
-21.0734
  0
LINE
  8
0
 10
-22.0365
 20
-21.0734
 11
-21.8613
 21
-21.1427
  0
LINE
  8
0
 10
-21.8613
 20
-21.1427
 11
-21.6963
 21
-21.2335
  0
LINE
  8
0
 10
-21.6963
 20
-21.2335
 11
-21.5439
 21
-21.3442
  0
LINE
  8
0
 10
-21.5439
 20
-21.3442
 11
-21.4065
 21
-21.4732
  0
LINE
  8
0
 10
-21.4065
 20
-21.4732
 11
-21.2865
 21
-21.6183
  0
LINE
  8
0
 10
-21.2865
 20
-21.6183
 11
-21.1855
 21
-21.7774
  0
LINE
  8
0
 10
-21.1855
 20
-21.7774
 11
-21.1053
 21
-21.9478
  0
LINE
  8
0
 10
-21.1053
 20
-21.9478
 11
-21.0471
 21
-22.127
  0
LINE
  8
0
 10
-21.0471
 20
-22.127
 11
-21.0118
 21
-22.312
  0
LINE
  8
0
 10
-21.0118
 20
-22.312
 11
-21
 21
-22.5
  0
LINE
  8
0
 10
-21
 20
-22.5
 11
-21.0118
 21
-22.688
  0
LINE
  8
0
 10
-21.0118
 20
-22.688
 11
-21.0471
 21
-22.873
  0
LINE
  8
0
 10
-21.0471
 20
-22.873
 11
-21.1053
 21
-23.0522
  0
LINE
  8
0
 10
-21.1053
 20
-23.0522
 11
-21.1855
 21
-23.2226
  0
LINE
  8
0
 10
-21.1855
 20
-23.2226
 11
-21.2865
 21
-23.3817
  0
LINE
  8
0
 10
-21.2865
 20
-23.3817
 11
-21.4065
 21
-23.5268
  0
LINE
  8
0
 10
-21.4065
 20
-23.5268
 11
-21.5439
 21
-23.6558
  0
LINE
  8
0
 10
-21.5439
 20
-23.6558
 11
-21.6963
 21
-23.7665
  0
LINE
  8
0
 10
-21.6963
 20
-23.7665
 11
-21.8613
 21
-23.8572
  0
LINE
  8
0
 10
-21.8613
 20
-23.8572
 11
-22.0365
 21
-23.9266
  0
LINE
  8
0
 10
-22.0365
 20
-23.9266
 11
-22.2189
 21
-23.9734
  0
LINE
  8
0
 10
-22.2189
 20
-23.9734
 11
-22.4058
 21
-23.997
  0
LINE
  8
0
 10
-22.4058
 20
-23.997
 11
-22.5942
 21
-23.997
  0
LINE
  8
0
 10
7.31161
 20
-32.9941
 11
6.93785
 21
-32.9469
  0
LINE
  8
0
 10
6.93785
 20
-32.9469
 11
6.57294
 21
-32.8532
  0
LINE
  8
0
 10
6.57294
 20
-32.8532
 11
6.22266
 21
-32.7145
  0
LINE
  8
0
 10
6.22266
 20
-32.7145
 11
5.89252
 21
-32.533
  0
LINE
  8
0
 10
5.89252
 20
-32.533
 11
5.58772
 21
-32.3115
  0
LINE
  8
0
 10
5.58772
 20
-32.3115
 11
5.31308
 21
-32.0536
  0
LINE
  8
0
 10
5.31308
 20
-32.0536
 11
5.07294
 21
-31.7634
  0
LINE
  8
0
 10
5.07294
 20
-31.7634
 11
4.87108
 21
-31.4453
  0
LINE
  8
0
 10
4.87108
 20
-31.4453
 11
4.71066
 21
-31.1044
  0
LINE
  8
0
 10
4.71066
 20
-31.1044
 11
4.59424
 21
-30.7461
  0
LINE
  8
0
 10
4.59424
 20
-30.7461
 11
4.52365
 21
-30.376
  0
LINE
  8
0
 10
4.52365
 20
-30.376
 11
4.5
 21
-30
  0
LINE
  8
0
 10
4.5
 20
-30
 11
4.52365
 21
-29.624
  0
LINE
  8
0
 10
4.52365
 20
-29.624
 11
4.59424
 21
-29.2539
  0
LINE
  8
0
 10
4.59424
 20
-29.2539
 11
4.71066
 21
-28.8956
  0
LINE
  8
0
 10
4.71066
 20
-28.8956
 11
4.87108
 21
-28.5547
  0
LINE
  8
0
 10
4.87108
 20
-28.5547
 11
5.07294
 21
-28.2366
  0
LINE
  8
0
 10
5.07294
 20
-28.2366
 11
5.31308
 21
-27.9464
  0
LINE
  8
0
 10
5.31308
 20
-27.9464
 11
5.58772
 21
-27.6884
  0
LINE
  8
0
 10
5.58772
 20
-27.6884
 11
5.89252
 21
-27.467
  0
LINE
  8
0
 10
5.89252
 20
-27.467
 11
6.22266
 21
-27.2855
  0
LINE
  8
0
 10
6.22266
 20
-27.2855
 11
6.57294
 21
-27.1468
  0
LINE
  8
0
 10
6.57294
 20
-27.1468
 11
6.93785
 21
-27.0531
  0
LINE
  8
0
 10
6.93785
 20
-27.0531
 11
7.31161
 21
-27.0059
  0
LINE
  8
0
 10
7.31161
 20
-27.0059
 11
7.68837
 21
-27.0059
  0
LINE
  8
0
 10
7.68837
 20
-27.0059
 11
8.06213
 21
-27.0531
  0
LINE
  8
0
 10
8.06213
 20
-27.0531
 11
8.42705
 21
-27.1468
  0
LINE
  8
0
 10
8.42705
 20
-27.1468
 11
8.77733
 21
-27.2855
  0
LINE
  8
0
 10
8.77733
 20
-27.2855
 11
9.10747
 21
-27.467
  0
LINE
  8
0
 10
9.10747
 20
-27.467
 11
9.41226
 21
-27.6884
  0
LINE
  8
0
 10
9.41226
 20
-27.6884
 11
9.6869
 21
-27.9464
  0
LINE
  8
0
 10
9.6869
 20
-27.9464
 11
9.92705
 21
-28.2366
  0
LINE
  8
0
 10
9.92705
 20
-28.2366
 11
10.1289
 21
-28.5547
  0
LINE
  8
0
 10
10.1289
 20
-28.5547
 11
10.2893
 21
-28.8956
  0
LINE
  8
0
 10
10.2893
 20
-28.8956
 11
10.4057
 21
-29.2539
  0
LINE
  8
0
 10
10.4057
 20
-29.2539
 11
10.4763
 21
-29.624
  0
LINE
  8
0
 10
10.4763
 20
-29.624
 11
10.5
 21
-30
  0
LINE
  8
0
 10
10.5
 20
-30
 11
10.4763
 21
-30.376
  0
LINE
  8
0
 10
10.4763
 20
-30.376
 11
10.4057
 21
-30.7461
  0
LINE
  8
0
 10
10.4057
 20
-30.7461
 11
10.2893
 21
-31.1044
  0
LINE
  8
0
 10
10.2893
 20
-31.1044
 11
10.1289
 21
-31.4453
  0
LINE
  8
0
 10
10.1289
 20
-31.4453
 11
9.92705
 21
-31.7634
  0
LINE
  8
0
 10
9.92705
 20
-31.7634
 11
9.6869
 21
-32.0536
  0
LINE
  8
0
 10
9.6869
 20
-32.0536
 11
9.41226
 21
-32.3115
  0
LINE
  8
0
 10
9.41226
 20
-32.3115
 11
9.10747
 21
-32.533
  0
LINE
  8
0
 10
9.10747
 20
-32.533
 11
8.77733
 21
-32.7145
  0
LINE
  8
0
 10
8.77733
 20
-32.7145
 11
8.42705
 21
-32.8532
  0
LINE
  8
0
 10
8.42705
 20
-32.8532
 11
8.06213
 21
-32.9469
  0
LINE
  8
0
 10
8.06213
 20
-32.9469
 11
7.68837
 21
-32.9941
  0
LINE
  8
0
 10
7.68837
 20
-32.9941
 11
7.31161
 21
-32.9941
  0
LINE
  8
0
 10
22.3116
 20
-32.9941
 11
21.9379
 21
-32.9469
  0
LINE
  8
0
 10
21.9379
 20
-32.9469
 11
21.5729
 21
-32.8532
  0
LINE
  8
0
 10
21.5729
 20
-32.8532
 11
21.2227
 21
-32.7145
  0
LINE
  8
0
 10
21.2227
 20
-32.7145
 11
20.8925
 21
-32.533
  0
LINE
  8
0
 10
20.8925
 20
-32.533
 11
20.5877
 21
-32.3115
  0
LINE
  8
0
 10
20.5877
 20
-32.3115
 11
20.3131
 21
-32.0536
  0
LINE
  8
0
 10
20.3131
 20
-32.0536
 11
20.0729
 21
-31.7634
  0
LINE
  8
0
 10
20.0729
 20
-31.7634
 11
19.8711
 21
-31.4453
  0
LINE
  8
0
 10
19.8711
 20
-31.4453
 11
19.7107
 21
-31.1044
  0
LINE
  8
0
 10
19.7107
 20
-31.1044
 11
19.5942
 21
-30.7461
  0
LINE
  8
0
 10
19.5942
 20
-30.7461
 11
19.5237
 21
-30.376
  0
LINE
  8
0
 10
19.5237
 20
-30.376
 11
19.5
 21
-30
  0
LINE
  8
0
 10
19.5
 20
-30
 11
19.5237
 21
-29.624
  0
LINE
  8
0
 10
19.5237
 20
-29.624
 11
19.5942
 21
-29.2539
  0
LINE
  8
0
 10
19.5942
 20
-29.2539
 11
19.7107
 21
-28.8956
  0
LINE
  8
0
 10
19.7107
 20
-28.8956
 11
19.8711
 21
-28.5547
  0
LINE
  8
0
 10
19.8711
 20
-28.5547
 11
20.0729
 21
-28.2366
  0
LINE
  8
0
 10
20.0729
 20
-28.2366
 11
20.3131
 21
-27.9464
  0
LINE
  8
0
 10
20.3131
 20
-27.9464
 11
20.5877
 21
-27.6884
  0
LINE
  8
0
 10
20.5877
 20
-27.6884
 11
20.8925
 21
-27.467
  0
LINE
  8
0
 10
20.8925
 20
-27.467
 11
21.2227
 21
-27.2855
  0
LINE
  8
0
 10
21.2227
 20
-27.2855
 11
21.5729
 21
-27.1468
  0
LINE
  8
0
 10
21.5729
 20
-27.1468
 11
21.9379
 21
-27.0531
  0
LINE
  8
0
 10
21.9379
 20
-27.0531
 11
22.3116
 21
-27.0059
  0
LINE
  8
0
 10
22.3116
 20
-27.0059
 11
22.6884
 21
-27.0059
  0
LINE
  8
0
 10
22.6884
 20
-27.0059
 11
23.0621
 21
-27.0531
  0
LINE
  8
0
 10
23.0621
 20
-27.0531
 11
23.427
 21
-27.1468
  0
LINE
  8
0
 10
23.427
 20
-27.1468
 11
23.7773
 21
-27.2855
  0
LINE
  8
0
 10
23.7773
 20
-27.2855
 11
24.1075
 21
-27.467
  0
LINE
  8
0
 10
24.1075
 20
-27.467
 11
24.4123
 21
-27.6884
  0
LINE
  8
0
 10
24.4123
 20
-27.6884
 11
24.6869
 21
-27.9464
  0
LINE
  8
0
 10
24.6869
 20
-27.9464
 11
24.927
 21
-28.2366
  0
LINE
  8
0
 10
24.927
 20
-28.2366
 11
25.1289
 21
-28.5547
  0
LINE
  8
0
 10
25.1289
 20
-28.5547
 11
25.2893
 21
-28.8956
  0
LINE
  8
0
 10
25.2893
 20
-28.8956
 11
25.4057
 21
-29.2539
  0
LINE
  8
0
 10
25.4057
 20
-29.2539
 11
25.4763
 21
-29.624
  0
LINE
  8
0
 10
25.4763
 20
-29.624
 11
25.5
 21
-30
  0
LINE
  8
0
 10
25.5
 20
-30
 11
25.4763
 21
-30.376
  0
LINE
  8
0
 10
25.4763
 20
-30.376
 11
25.4057
 21
-30.7461
  0
LINE
  8
0
 10
25.4057
 20
-30.7461
 11
25.2893
 21
-31.1044
  0
LINE
  8
0
 10
25.2893
 20
-31.1044
 11
25.1289
 21
-31.4453
  0
LINE
  8
0
 10
25.1289
 20
-31.4453
 11
24.927
 21
-31.7634
  0
LINE
  8
0
 10
24.927
 20
-31.7634
 11
24.6869
 21
-32.0536
  0
LINE
  8
0
 10
24.6869
 20
-32.0536
 11
24.4123
 21
-32.3115
  0
LINE
  8
0
 10
24.4123
 20
-32.3115
 11
24.1075
 21
-32.533
  0
LINE
  8
0
 10
24.1075
 20
-32.533
 11
23.7773
 21
-32.7145
  0
LINE
  8
0
 10
23.7773
 20
-32.7145
 11
23.427
 21
-32.8532
  0
LINE
  8
0
 10
23.427
 20
-32.8532
 11
23.0621
 21
-32.9469
  0
LINE
  8
0
 10
23.0621
 20
-32.9469
 11
22.6884
 21
-32.9941
  0
LINE
  8
0
 10
22.6884
 20
-32.9941
 11
22.3116
 21
-32.9941
  0
LINE
  8
0
 10
-22.6884
 20
-32.9941
 11
-23.0621
 21
-32.9469
  0
LINE
  8
0
 10
-23.0621
 20
-32.9469
 11
-23.427
 21
-32.8532
  0
LINE
  8
0
 10
-23.427
 20
-32.8532
 11
-23.7773
 21
-32.7145
  0
LINE
  8
0
 10
-23.7773
 20
-32.7145
 11
-24.1075
 21
-32.533
  0
LINE
  8
0
 10
-24.1075
 20
-32.533
 11
-24.4123
 21
-32.3115
  0
LINE
  8
0
 10
-24.4123
 20
-32.3115
 11
-24.6869
 21
-32.0536
  0
LINE
  8
0
 10
-24.6869
 20
-32.0536
 11
-24.927
 21
-31.7634
  0
LINE
  8
0
 10
-24.927
 20
-31.7634
 11
-25.1289
 21
-31.4453
  0
LINE
  8
0
 10
-25.1289
 20
-31.4453
 11
-25.2893
 21
-31.1044
  0
LINE
  8
0
 10
-25.2893
 20
-31.1044
 11
-25.4057
 21
-30.7461
  0
LINE
  8
0
 10
-25.4057
 20
-30.7461
 11
-25.4763
 21
-30.376
  0
LINE
  8
0
 10
-25.4763
 20
-30.376
 11
-25.5
 21
-30
  0
LINE
  8
0
 10
-25.5
 20
-30
 11
-25.4763
 21
-29.624
  0
LINE
  8
0
 10
-25.4763
 20
-29.624
 11
-25.4057
 21
-29.2539
  0
LINE
  8
0
 10
-25.4057
 20
-29.2539
 11
-25.2893
 21
-28.8956
  0
LINE
  8
0
 10
-25.2893
 20
-28.8956
 11
-25.1289
 21
-28.5547
  0
LINE
  8
0
 10
-25.1289
 20
-28.5547
 11
-24.927
 21
-28.2366
  0
LINE
  8
0
 10
-24.927
 20
-28.2366
 11
-24.6869
 21
-27.9464
  0
LINE
  8
0
 10
-24.6869
 20
-27.9464
 11
-24.4123
 21
-27.6884
  0
LINE
  8
0
 10
-24.4123
 20
-27.6884
 11
-24.1075
 21
-27.467
  0
LINE
  8
0
 10
-24.1075
 20
-27.467
 11
-23.7773
 21
-27.2855
  0
LINE
  8
0
 10
-23.7773
 20
-27.2855
 11
-23.427
 21
-27.1468
  0
LINE
  8
0
 10
-23.427
 20
-27.1468
 11
-23.0621
 21
-27.0531
  0
LINE
  8
0
 10
-23.0621
 20
-27.0531
 11
-22.6884
 21
-27.0059
  0
LINE
  8
0
 10
-22.6884
 20
-27.0059
 11
-22.3116
 21
-27.0059
  0
LINE
  8
0
 10
-22.3116
 20
-27.0059
 11
-21.9379
 21
-27.0531
  0
LINE
  8
0
 10
-21.9379
 20
-27.0531
 11
-21.5729
 21
-27.1468
  0
LINE
  8
0
 10
-21.5729
 20
-27.1468
 11
-21.2227
 21
-27.2855
  0
LINE
  8
0
 10
-21.2227
 20
-27.2855
 11
-20.8925
 21
-27.467
  0
LINE
  8
0
 10
-20.8925
 20
-27.467
 11
-20.5877
 21
-27.6884
  0
LINE
  8
0
 10
-20.5877
 20
-27.6884
 11
-20.3131
 21
-27.9464
  0
LINE
  8
0
 10
-20.3131
 20
-27.9464
 11
-20.0729
 21
-28.2366
  0
LINE
  8
0
 10
-20.0729
 20
-28.2366
 11
-19.8711
 21
-28.5547
  0
LINE
  8
0
 10
-19.8711
 20
-28.5547
 11
-19.7107
 21
-28.8956
  0
LINE
  8
0
 10
-19.7107
 20
-28.8956
 11
-19.5942
 21
-29.2539
  0
LINE
  8
0
 10
-19.5942
 20
-29.2539
 11
-19.5237
 21
-29.624
  0
LINE
  8
0
 10
-19.5237
 20
-29.624
 11
-19.5
 21
-30
  0
LINE
  8
0
 10
-19.5
 20
-30
 11
-19.5237
 21
-30.376
  0
LINE
  8
0
 10
-19.5237
 20
-30.376
 11
-19.5942
 21
-30.7461
  0
LINE
  8
0
 10
-19.5942
 20
-30.7461
 11
-19.7107
 21
-31.1044
  0
LINE
  8
0
 10
-19.7107
 20
-31.1044
 11
-19.8711
 21
-31.4453
  0
LINE
  8
0
 10
-19.8711
 20
-31.4453
 11
-20.0729
 21
-31.7634
  0
LINE
  8
0
 10
-20.0729
 20
-31.7634
 11
-20.3131
 21
-32.0536
  0
LINE
  8
0
 10
-20.3131
 20
-32.0536
 11
-20.5877
 21
-32.3115
  0
LINE
  8
0
 10
-20.5877
 20
-32.3115
 11
-20.8925
 21
-32.533
  0
LINE
  8
0
 10
-20.8925
 20
-32.533
 11
-21.2227
 21
-32.7145
  0
LINE
  8
0
 10
-21.2227
 20
-32.7145
 11
-21.5729
 21
-32.8532
  0
LINE
  8
0
 10
-21.5729
 20
-32.8532
 11
-21.9379
 21
-32.9469
  0
LINE
  8
0
 10
-21.9379
 20
-32.9469
 11
-22.3116
 21
-32.9941
  0
LINE
  8
0
 10
-22.3116
 20
-32.9941
 11
-22.6884
 21
-32.9941
  0
LINE
  8
0
 10
-7.68837
 20
-32.9941
 11
-8.06213
 21
-32.9469
  0
LINE
  8
0
 10
-8.06213
 20
-32.9469
 11
-8.42705
 21
-32.8532
  0
LINE
  8
0
 10
-8.42705
 20
-32.8532
 11
-8.77733
 21
-32.7145
  0
LINE
  8
0
 10
-8.77733
 20
-32.7145
 11
-9.10747
 21
-32.533
  0
LINE
  8
0
 10
-9.10747
 20
-32.533
 11
-9.41226
 21
-32.3115
  0
LINE
  8
0
 10
-9.41226
 20
-32.3115
 11
-9.6869
 21
-32.0536
  0
LINE
  8
0
 10
-9.6869
 20
-32.0536
 11
-9.92705
 21
-31.7634
  0
LINE
  8
0
 10
-9.92705
 20
-31.7634
 11
-10.1289
 21
-31.4453
  0
LINE
  8
0
 10
-10.1289
 20
-31.4453
 11
-10.2893
 21
-31.1044
  0
LINE
  8
0
 10
-10.2893
 20
-31.1044
 11
-10.4057
 21
-30.7461
  0
LINE
  8
0
 10
-10.4057
 20
-30.7461
 11
-10.4763
 21
-30.376
  0
LINE
  8
0
 10
-10.4763
 20
-30.376
 11
-10.5
 21
-30
  0
LINE
  8
0
 10
-10.5
 20
-30
 11
-10.4763
 21
-29.624
  0
LINE
  8
0
 10
-10.4763
 20
-29.624
 11
-10.4057
 21
-29.2539
  0
LINE
  8
0
 10
-10.4057
 20
-29.2539
 11
-10.2893
 21
-28.8956
  0
LINE
  8
0
 10
-10.2893
 20
-28.8956
 11
-10.1289
 21
-28.5547
  0
LINE
  8
0
 10
-10.1289
 20
-28.5547
 11
-9.92705
 21
-28.2366
  0
LINE
  8
0
 10
-9.92705
 20
-28.2366
 11
-9.6869
 21
-27.9464
  0
LINE
  8
0
 10
-9.6869
 20
-27.9464
 11
-9.41226
 21
-27.6884
  0
LINE
  8
0
 10
-9.41226
 20
-27.6884
 11
-9.10747
 21
-27.467
  0
LINE
  8
0
 10
-9.10747
 20
-27.467
 11
-8.77733
 21
-27.2855
  0
LINE
  8
0
 10
-8.77733
 20
-27.2855
 11
-8.42705
 21
-27.1468
  0
LINE
  8
0
 10
-8.42705
 20
-27.1468
 11
-8.06213
 21
-27.0531
  0
LINE
  8
0
 10
-8.06213
 20
-27.0531
 11
-7.68837
 21
-27.0059
  0
LINE
  8
0
 10
-7.68837
 20
-27.0059
 11
-7.31161
 21
-27.0059
  0
LINE
  8
0
 10
-7.31161
 20
-27.0059
 11
-6.93785
 21
-27.0531
  0
LINE
  8
0
 10
-6.93785
 20
-27.0531
 11
-6.57294
 21
-27.1468
  0
LINE
  8
0
 10
-6.57294
 20
-27.1468
 11
-6.22266
 21
-27.2855
  0
LINE
  8
0
 10
-6.22266
 20
-27.2855
 11
-5.89252
 21
-27.467
  0
LINE
  8
0
 10
-5.89252
 20
-27.467
 11
-5.58772
 21
-27.6884
  0
LINE
  8
0
 10
-5.58772
 20
-27.6884
 11
-5.31308
 21
-27.9464
  0
LINE
  8
0
 10
-5.31308
 20
-27.9464
 11
-5.07294
 21
-28.2366
  0
LINE
  8
0
 10
-5.07294
 20
-28.2366
 11
-4.87108
 21
-28.5547
  0
LINE
  8
0
 10
-4.87108
 20
-28.5547
 11
-4.71066
 21
-28.8956
  0
LINE
  8
0
 10
-4.71066
 20
-28.8956
 11
-4.59424
 21
-29.2539
  0
LINE
  8
0
 10
-4.59424
 20
-29.2539
 11
-4.52365
 21
-29.624
  0
LINE
  8
0
 10
-4.52365
 20
-29.624
 11
-4.5
 21
-30
  0
LINE
  8
0
 10
-4.5
 20
-30
 11
-4.52365
 21
-30.376
  0
LINE
  8
0
 10
-4.52365
 20
-30.376
 11
-4.59424
 21
-30.7461
  0
LINE
  8
0
 10
-4.59424
 20
-30.7461
 11
-4.71066
 21
-31.1044
  0
LINE
  8
0
 10
-4.71066
 20
-31.1044
 11
-4.87108
 21
-31.4453
  0
LINE
  8
0
 10
-4.87108
 20
-31.4453
 11
-5.07294
 21
-31.7634
  0
LINE
  8
0
 10
-5.07294
 20
-31.7634
 11
-5.31308
 21
-32.0536
  0
LINE
  8
0
 10
-5.31308
 20
-32.0536
 11
-5.58772
 21
-32.3115
  0
LINE
  8
0
 10
-5.58772
 20
-32.3115
 11
-5.89252
 21
-32.533
  0
LINE
  8
0
 10
-5.89252
 20
-32.533
 11
-6.22266
 21
-32.7145
  0
LINE
  8
0
 10
-6.22266
 20
-32.7145
 11
-6.57294
 21
-32.8532
  0
LINE
  8
0
 10
-6.57294
 20
-32.8532
 11
-6.93785
 21
-32.9469
  0
LINE
  8
0
 10
-6.93785
 20
-32.9469
 11
-7.31161
 21
-32.9941
  0
LINE
  8
0
 10
-7.31161
 20
-32.9941
 11
-7.68837
 21
-32.9941
  0
LINE
  8
0
 10
-0.113022
 20
-31.7964
 11
-0.33728
 21
-31.7681
  0
LINE
  8
0
 10
-0.33728
 20
-31.7681
 11
-0.556229
 21
-31.7119
  0
LINE
  8
0
 10
-0.556229
 20
-31.7119
 11
-0.766388
 21
-31.6287
  0
LINE
  8
0
 10
-0.766388
 20
-31.6287
 11
-0.964478
 21
-31.5198
  0
LINE
  8
0
 10
-0.964478
 20
-31.5198
 11
-1.14735
 21
-31.3869
  0
LINE
  8
0
 10
-1.14735
 20
-31.3869
 11
-1.31213
 21
-31.2322
  0
LINE
  8
0
 10
-1.31213
 20
-31.2322
 11
-1.45622
 21
-31.058
  0
LINE
  8
0
 10
-1.45622
 20
-31.058
 11
-1.57735
 21
-30.8672
  0
LINE
  8
0
 10
-1.57735
 20
-30.8672
 11
-1.67358
 21
-30.6626
  0
LINE
  8
0
 10
-1.67358
 20
-30.6626
 11
-1.74344
 21
-30.4476
  0
LINE
  8
0
 10
-1.74344
 20
-30.4476
 11
-1.7858
 21
-30.2256
  0
LINE
  8
0
 10
-1.7858
 20
-30.2256
 11
-1.79999
 21
-30
  0
LINE
  8
0
 10
-1.79999
 20
-30
 11
-1.7858
 21
-29.7744
  0
LINE
  8
0
 10
-1.7858
 20
-29.7744
 11
-1.74344
 21
-29.5524
  0
LINE
  8
0
 10
-1.74344
 20
-29.5524
 11
-1.67358
 21
-29.3374
  0
LINE
  8
0
 10
-1.67358
 20
-29.3374
 11
-1.57735
 21
-29.1328
  0
LINE
  8
0
 10
-1.57735
 20
-29.1328
 11
-1.45622
 21
-28.942
  0
LINE
  8
0
 10
-1.45622
 20
-28.942
 11
-1.31213
 21
-28.7678
  0
LINE
  8
0
 10
-1.31213
 20
-28.7678
 11
-1.14735
 21
-28.6131
  0
LINE
  8
0
 10
-1.14735
 20
-28.6131
 11
-0.964478
 21
-28.4802
  0
LINE
  8
0
 10
-0.964478
 20
-28.4802
 11
-0.766388
 21
-28.3713
  0
LINE
  8
0
 10
-0.766388
 20
-28.3713
 11
-0.556229
 21
-28.2881
  0
LINE
  8
0
 10
-0.556229
 20
-28.2881
 11
-0.33728
 21
-28.2319
  0
LINE
  8
0
 10
-0.33728
 20
-28.2319
 11
-0.113022
 21
-28.2036
  0
LINE
  8
0
 10
-0.113022
 20
-28.2036
 11
0.113022
 21
-28.2036
  0
LINE
  8
0
 10
0.113022
 20
-28.2036
 11
0.33728
 21
-28.2319
  0
LINE
  8
0
 10
0.33728
 20
-28.2319
 11
0.556229
 21
-28.2881
  0
LINE
  8
0
 10
0.556229
 20
-28.2881
 11
0.766388
 21
-28.3713
  0
LINE
  8
0
 10
0.766388
 20
-28.3713
 11
0.964478
 21
-28.4802
  0
LINE
  8
0
 10
0.964478
 20
-28.4802
 11
1.14735
 21
-28.6131
  0
LINE
  8
0
 10
1.14735
 20
-28.6131
 11
1.31213
 21
-28.7678
  0
LINE
  8
0
 10
1.31213
 20
-28.7678
 11
1.45622
 21
-28.942
  0
LINE
  8
0
 10
1.45622
 20
-28.942
 11
1.57735
 21
-29.1328
  0
LINE
  8
0
 10
1.57735
 20
-29.1328
 11
1.67358
 21
-29.3374
  0
LINE
  8
0
 10
1.67358
 20
-29.3374
 11
1.74344
 21
-29.5524
  0
LINE
  8
0
 10
1.74344
 20
-29.5524
 11
1.7858
 21
-29.7744
  0
LINE
  8
0
 10
1.7858
 20
-29.7744
 11
1.79999
 21
-30
  0
LINE
  8
0
 10
1.79999
 20
-30
 11
1.7858
 21
-30.2256
  0
LINE
  8
0
 10
1.7858
 20
-30.2256
 11
1.74344
 21
-30.4476
  0
LINE
  8
0
 10
1.74344
 20
-30.4476
 11
1.67358
 21
-30.6626
  0
LINE
  8
0
 10
1.67358
 20
-30.6626
 11
1.57735
 21
-30.8672
  0
LINE
  8
0
 10
1.57735
 20
-30.8672
 11
1.45622
 21
-31.058
  0
LINE
  8
0
 10
1.45622
 20
-31.058
 11
1.31213
 21
-31.2322
  0
LINE
  8
0
 10
1.31213
 20
-31.2322
 11
1.14735
 21
-31.3869
  0
LINE
  8
0
 10
1.14735
 20
-31.3869
 11
0.964478
 21
-31.5198
  0
LINE
  8
0
 10
0.964478
 20
-31.5198
 11
0.766388
 21
-31.6287
  0
LINE
  8
0
 10
0.766388
 20
-31.6287
 11
0.556229
 21
-31.7119
  0
LINE
  8
0
 10
0.556229
 20
-31.7119
 11
0.33728
 21
-31.7681
  0
LINE
  8
0
 10
0.33728
 20
-31.7681
 11
0.113022
 21
-31.7964
  0
LINE
  8
0
 10
0.113022
 20
-31.7964
 11
-0.113022
 21
-31.7964
  0
LINE
  8
0
 10
-15.0942
 20
-31.497
 11
-15.2811
 21
-31.4734
  0
LINE
  8
0
 10
-15.2811
 20
-31.4734
 11
-15.4635
 21
-31.4266
  0
LINE
  8
0
 10
-15.4635
 20
-31.4266
 11
-15.6387
 21
-31.3572
  0
LINE
  8
0
 10
-15.6387
 20
-31.3572
 11
-15.8037
 21
-31.2665
  0
LINE
  8
0
 10
-15.8037
 20
-31.2665
 11
-15.9561
 21
-31.1558
  0
LINE
  8
0
 10
-15.9561
 20
-31.1558
 11
-16.0934
 21
-31.0268
  0
LINE
  8
0
 10
-16.0934
 20
-31.0268
 11
-16.2135
 21
-30.8817
  0
LINE
  8
0
 10
-16.2135
 20
-30.8817
 11
-16.3145
 21
-30.7226
  0
LINE
  8
0
 10
-16.3145
 20
-30.7226
 11
-16.3947
 21
-30.5522
  0
LINE
  8
0
 10
-16.3947
 20
-30.5522
 11
-16.4529
 21
-30.373
  0
LINE
  8
0
 10
-16.4529
 20
-30.373
 11
-16.4882
 21
-30.188
  0
LINE
  8
0
 10
-16.4882
 20
-30.188
 11
-16.5
 21
-30
  0
LINE
  8
0
 10
-16.5
 20
-30
 11
-16.4882
 21
-29.812
  0
LINE
  8
0
 10
-16.4882
 20
-29.812
 11
-16.4529
 21
-29.627
  0
LINE
  8
0
 10
-16.4529
 20
-29.627
 11
-16.3947
 21
-29.4478
  0
LINE
  8
0
 10
-16.3947
 20
-29.4478
 11
-16.3145
 21
-29.2774
  0
LINE
  8
0
 10
-16.3145
 20
-29.2774
 11
-16.2135
 21
-29.1183
  0
LINE
  8
0
 10
-16.2135
 20
-29.1183
 11
-16.0934
 21
-28.9732
  0
LINE
  8
0
 10
-16.0934
 20
-28.9732
 11
-15.9561
 21
-28.8442
  0
LINE
  8
0
 10
-15.9561
 20
-28.8442
 11
-15.8037
 21
-28.7335
  0
LINE
  8
0
 10
-15.8037
 20
-28.7335
 11
-15.6387
 21
-28.6427
  0
LINE
  8
0
 10
-15.6387
 20
-28.6427
 11
-15.4635
 21
-28.5734
  0
LINE
  8
0
 10
-15.4635
 20
-28.5734
 11
-15.2811
 21
-28.5266
  0
LINE
  8
0
 10
-15.2811
 20
-28.5266
 11
-15.0942
 21
-28.503
  0
LINE
  8
0
 10
-15.0942
 20
-28.503
 11
-14.9058
 21
-28.503
  0
LINE
  8
0
 10
-14.9058
 20
-28.503
 11
-14.7189
 21
-28.5266
  0
LINE
  8
0
 10
-14.7189
 20
-28.5266
 11
-14.5365
 21
-28.5734
  0
LINE
  8
0
 10
-14.5365
 20
-28.5734
 11
-14.3613
 21
-28.6427
  0
LINE
  8
0
 10
-14.3613
 20
-28.6427
 11
-14.1963
 21
-28.7335
  0
LINE
  8
0
 10
-14.1963
 20
-28.7335
 11
-14.0439
 21
-28.8442
  0
LINE
  8
0
 10
-14.0439
 20
-28.8442
 11
-13.9065
 21
-28.9732
  0
LINE
  8
0
 10
-13.9065
 20
-28.9732
 11
-13.7865
 21
-29.1183
  0
LINE
  8
0
 10
-13.7865
 20
-29.1183
 11
-13.6855
 21
-29.2774
  0
LINE
  8
0
 10
-13.6855
 20
-29.2774
 11
-13.6053
 21
-29.4478
  0
LINE
  8
0
 10
-13.6053
 20
-29.4478
 11
-13.5471
 21
-29.627
  0
LINE
  8
0
 10
-13.5471
 20
-29.627
 11
-13.5118
 21
-29.812
  0
LINE
  8
0
 10
-13.5118
 20
-29.812
 11
-13.5
 21
-30
  0
LINE
  8
0
 10
-13.5
 20
-30
 11
-13.5118
 21
-30.188
  0
LINE
  8
0
 10
-13.5118
 20
-30.188
 11
-13.5471
 21
-30.373
  0
LINE
  8
0
 10
-13.5471
 20
-30.373
 11
-13.6053
 21
-30.5522
  0
LINE
  8
0
 10
-13.6053
 20
-30.5522
 11
-13.6855
 21
-30.7226
  0
LINE
  8
0
 10
-13.6855
 20
-30.7226
 11
-13.7865
 21
-30.8817
  0
LINE
  8
0
 10
-13.7865
 20
-30.8817
 11
-13.9065
 21
-31.0268
  0
LINE
  8
0
 10
-13.9065
 20
-31.0268
 11
-14.0439
 21
-31.1558
  0
LINE
  8
0
 10
-14.0439
 20
-31.1558
 11
-14.1963
 21
-31.2665
  0
LINE
  8
0
 10
-14.1963
 20
-31.2665
 11
-14.3613
 21
-31.3572
  0
LINE
  8
0
 10
-14.3613
 20
-31.3572
 11
-14.5365
 21
-31.4266
  0
LINE
  8
0
 10
-14.5365
 20
-31.4266
 11
-14.7189
 21
-31.4734
  0
LINE
  8
0
 10
-14.7189
 20
-31.4734
 11
-14.9058
 21
-31.497
  0
LINE
  8
0
 10
-14.9058
 20
-31.497
 11
-15.0942
 21
-31.497
  0
LINE
  8
0
 10
14.9058
 20
-31.497
 11
14.7189
 21
-31.4734
  0
LINE
  8
0
 10
14.7189
 20
-31.4734
 11
14.5365
 21
-31.4266
  0
LINE
  8
0
 10
14.5365
 20
-31.4266
 11
14.3613
 21
-31.3572
  0
LINE
  8
0
 10
14.3613
 20
-31.3572
 11
14.1963
 21
-31.2665
  0
LINE
  8
0
 10
14.1963
 20
-31.2665
 11
14.0439
 21
-31.1558
  0
LINE
  8
0
 10
14.0439
 20
-31.1558
 11
13.9065
 21
-31.0268
  0
LINE
  8
0
 10
13.9065
 20
-31.0268
 11
13.7865
 21
-30.8817
  0
LINE
  8
0
 10
13.7865
 20
-30.8817
 11
13.6855
 21
-30.7226
  0
LINE
  8
0
 10
13.6855
 20
-30.7226
 11
13.6053
 21
-30.5522
  0
LINE
  8
0
 10
13.6053
 20
-30.5522
 11
13.5471
 21
-30.373
  0
LINE
  8
0
 10
13.5471
 20
-30.373
 11
13.5118
 21
-30.188
  0
LINE
  8
0
 10
13.5118
 20
-30.188
 11
13.5
 21
-30
  0
LINE
  8
0
 10
13.5
 20
-30
 11
13.5118
 21
-29.812
  0
LINE
  8
0
 10
13.5118
 20
-29.812
 11
13.5471
 21
-29.627
  0
LINE
  8
0
 10
13.5471
 20
-29.627
 11
13.6053
 21
-29.4478
  0
LINE
  8
0
 10
13.6053
 20
-29.4478
 11
13.6855
 21
-29.2774
  0
LINE
  8
0
 10
13.6855
 20
-29.2774
 11
13.7865
 21
-29.1183
  0
LINE
  8
0
 10
13.7865
 20
-29.1183
 11
13.9065
 21
-28.9732
  0
LINE
  8
0
 10
13.9065
 20
-28.9732
 11
14.0439
 21
-28.8442
  0
LINE
  8
0
 10
14.0439
 20
-28.8442
 11
14.1963
 21
-28.7335
  0
LINE
  8
0
 10
14.1963
 20
-28.7335
 11
14.3613
 21
-28.6427
  0
LINE
  8
0
 10
14.3613
 20
-28.6427
 11
14.5365
 21
-28.5734
  0
LINE
  8
0
 10
14.5365
 20
-28.5734
 11
14.7189
 21
-28.5266
  0
LINE
  8
0
 10
14.7189
 20
-28.5266
 11
14.9058
 21
-28.503
  0
LINE
  8
0
 10
14.9058
 20
-28.503
 11
15.0942
 21
-28.503
  0
LINE
  8
0
 10
15.0942
 20
-28.503
 11
15.2811
 21
-28.5266
  0
LINE
  8
0
 10
15.2811
 20
-28.5266
 11
15.4635
 21
-28.5734
  0
LINE
  8
0
 10
15.4635
 20
-28.5734
 11
15.6387
 21
-28.6427
  0
LINE
  8
0
 10
15.6387
 20
-28.6427
 11
15.8037
 21
-28.7335
  0
LINE
  8
0
 10
15.8037
 20
-28.7335
 11
15.9561
 21
-28.8442
  0
LINE
  8
0
 10
15.9561
 20
-28.8442
 11
16.0934
 21
-28.9732
  0
LINE
  8
0
 10
16.0934
 20
-28.9732
 11
16.2135
 21
-29.1183
  0
LINE
  8
0
 10
16.2135
 20
-29.1183
 11
16.3145
 21
-29.2774
  0
LINE
  8
0
 10
16.3145
 20
-29.2774
 11
16.3947
 21
-29.4478
  0
LINE
  8
0
 10
16.3947
 20
-29.4478
 11
16.4529
 21
-29.627
  0
LINE
  8
0
 10
16.4529
 20
-29.627
 11
16.4882
 21
-29.812
  0
LINE
  8
0
 10
16.4882
 20
-29.812
 11
16.5
 21
-30
  0
LINE
  8
0
 10
16.5
 20
-30
 11
16.4882
 21
-30.188
  0
LINE
  8
0
 10
16.4882
 20
-30.188
 11
16.4529
 21
-30.373
  0
LINE
  8
0
 10
16.4529
 20
-30.373
 11
16.3947
 21
-30.5522
  0
LINE
  8
0
 10
16.3947
 20
-30.5522
 11
16.3145
 21
-30.7226
  0
LINE
  8
0
 10
16.3145
 20
-30.7226
 11
16.2135
 21
-30.8817
  0
LINE
  8
0
 10
16.2135
 20
-30.8817
 11
16.0934
 21
-31.0268
  0
LINE
  8
0
 10
16.0934
 20
-31.0268
 11
15.9561
 21
-31.1558
  0
LINE
  8
0
 10
15.9561
 20
-31.1558
 11
15.8037
 21
-31.2665
  0
LINE
  8
0
 10
15.8037
 20
-31.2665
 11
15.6387
 21
-31.3572
  0
LINE
  8
0
 10
15.6387
 20
-31.3572
 11
15.4635
 21
-31.4266
  0
LINE
  8
0
 10
15.4635
 20
-31.4266
 11
15.2811
 21
-31.4734
  0
LINE
  8
0
 10
15.2811
 20
-31.4734
 11
15.0942
 21
-31.497
  0
LINE
  8
0
 10
15.0942
 20
-31.497
 11
14.9058
 21
-31.497
  0
LINE
  8
0
 10
53.1571
 20
-10.7434
 11
53.3511
 21
-11.3406
  0
LINE
  8
0
 10
53.3511
 20
-11.3406
 11
53.6185
 21
-11.9088
  0
LINE
  8
0
 10
53.6185
 20
-11.9088
 11
53.9549
 21
-12.4389
  0
LINE
  8
0
 10
53.9549
 20
-12.4389
 11
54.3551
 21
-12.9227
  0
LINE
  8
0
 10
54.3551
 20
-12.9227
 11
54.8129
 21
-13.3526
  0
LINE
  8
0
 10
54.8129
 20
-13.3526
 11
55.3209
 21
-13.7216
  0
LINE
  8
0
 10
55.3209
 20
-13.7216
 11
55.8711
 21
-14.0241
  0
LINE
  8
0
 10
55.8711
 20
-14.0241
 11
56.4549
 21
-14.2553
  0
LINE
  8
0
 10
56.4549
 20
-14.2553
 11
57.0631
 21
-14.4114
  0
LINE
  8
0
 10
57.0631
 20
-14.4114
 11
57.686
 21
-14.4901
  0
LINE
  8
0
 10
57.686
 20
-14.4901
 11
62.3139
 21
-14.4901
  0
LINE
  8
0
 10
62.3139
 20
-14.4901
 11
62.9369
 21
-14.4114
  0
LINE
  8
0
 10
62.9369
 20
-14.4114
 11
63.5451
 21
-14.2553
  0
LINE
  8
0
 10
63.5451
 20
-14.2553
 11
64.1289
 21
-14.0241
  0
LINE
  8
0
 10
64.1289
 20
-14.0241
 11
64.6791
 21
-13.7216
  0
LINE
  8
0
 10
64.6791
 20
-13.7216
 11
65.1871
 21
-13.3526
  0
LINE
  8
0
 10
65.1871
 20
-13.3526
 11
65.6448
 21
-12.9227
  0
LINE
  8
0
 10
65.6448
 20
-12.9227
 11
66.0451
 21
-12.4389
  0
LINE
  8
0
 10
66.0451
 20
-12.4389
 11
66.3815
 21
-11.9088
  0
LINE
  8
0
 10
66.3815
 20
-11.9088
 11
66.6489
 21
-11.3406
  0
LINE
  8
0
 10
66.6489
 20
-11.3406
 11
66.8429
 21
-10.7434
  0
LINE
  8
0
 10
66.8429
 20
-10.7434
 11
66.9606
 21
-10.1267
  0
LINE
  8
0
 10
66.9606
 20
-10.1267
 11
67
 21
-9.5
  0
LINE
  8
0
 10
67
 20
-9.5
 11
67
 21
23.0099
  0
LINE
  8
0
 10
67
 20
23.0099
 11
69.8139
 21
23.0099
  0
LINE
  8
0
 10
69.8139
 20
23.0099
 11
70.4369
 21
23.0886
  0
LINE
  8
0
 10
70.4369
 20
23.0886
 11
71.0451
 21
23.2447
  0
LINE
  8
0
 10
71.0451
 20
23.2447
 11
71.6289
 21
23.4759
  0
LINE
  8
0
 10
71.6289
 20
23.4759
 11
72.1791
 21
23.7784
  0
LINE
  8
0
 10
72.1791
 20
23.7784
 11
72.6871
 21
24.1474
  0
LINE
  8
0
 10
72.6871
 20
24.1474
 11
73.1448
 21
24.5773
  0
LINE
  8
0
 10
73.1448
 20
24.5773
 11
73.5451
 21
25.0611
  0
LINE
  8
0
 10
73.5451
 20
25.0611
 11
73.8815
 21
25.5912
  0
LINE
  8
0
 10
73.8815
 20
25.5912
 11
74.1489
 21
26.1594
  0
LINE
  8
0
 10
74.1489
 20
26.1594
 11
74.3429
 21
26.7565
  0
LINE
  8
0
 10
74.3429
 20
26.7565
 11
74.4606
 21
27.3733
  0
LINE
  8
0
 10
74.4606
 20
27.3733
 11
74.5
 21
28
  0
LINE
  8
0
 10
74.5
 20
28
 11
74.5
 21
28.5878
  0
LINE
  8
0
 10
74.5
 20
28.5878
 11
74.3613
 21
28.6427
  0
LINE
  8
0
 10
74.3613
 20
28.6427
 11
74.1963
 21
28.7335
  0
LINE
  8
0
 10
74.1963
 20
28.7335
 11
74.0439
 21
28.8442
  0
LINE
  8
0
 10
74.0439
 20
28.8442
 11
73.9065
 21
28.9732
  0
LINE
  8
0
 10
73.9065
 20
28.9732
 11
73.7865
 21
29.1183
  0
LINE
  8
0
 10
73.7865
 20
29.1183
 11
73.6855
 21
29.2774
  0
LINE
  8
0
 10
73.6855
 20
29.2774
 11
73.6053
 21
29.4478
  0
LINE
  8
0
 10
73.6053
 20
29.4478
 11
73.5471
 21
29.627
  0
LINE
  8
0
 10
73.5471
 20
29.627
 11
73.5118
 21
29.812
  0
LINE
  8
0
 10
73.5118
 20
29.812
 11
73.5
 21
30
  0
LINE
  8
0
 10
73.5
 20
30
 11
73.5118
 21
30.188
  0
LINE
  8
0
 10
73.5118
 20
30.188
 11
73.5471
 21
30.373
  0
LINE
  8
0
 10
73.5471
 20
30.373
 11
73.6053
 21
30.5522
  0
LINE
  8
0
 10
73.6053
 20
30.5522
 11
73.6855
 21
30.7226
  0
LINE
  8
0
 10
73.6855
 20
30.7226
 11
73.7865
 21
30.8817
  0
LINE
  8
0
 10
73.7865
 20
30.8817
 11
73.9065
 21
31.0268
  0
LINE
  8
0
 10
73.9065
 20
31.0268
 11
74.0439
 21
31.1558
  0
LINE
  8
0
 10
74.0439
 20
31.1558
 11
74.1963
 21
31.2665
  0
LINE
  8
0
 10
74.1963
 20
31.2665
 11
74.3613
 21
31.3572
  0
LINE
  8
0
 10
74.3613
 20
31.3572
 11
74.5
 21
31.4121
  0
LINE
  8
0
 10
74.5
 20
31.4121
 11
74.5
 21
32
  0
LINE
  8
0
 10
74.5
 20
32
 11
74.4606
 21
32.6267
  0
LINE
  8
0
 10
74.4606
 20
32.6267
 11
74.3429
 21
33.2434
  0
LINE
  8
0
 10
74.3429
 20
33.2434
 11
74.1489
 21
33.8406
  0
LINE
  8
0
 10
74.1489
 20
33.8406
 11
73.8815
 21
34.4088
  0
LINE
  8
0
 10
73.8815
 20
34.4088
 11
73.5451
 21
34.9389
  0
LINE
  8
0
 10
73.5451
 20
34.9389
 11
73.1448
 21
35.4227
  0
LINE
  8
0
 10
73.1448
 20
35.4227
 11
72.6871
 21
35.8526
  0
LINE
  8
0
 10
72.6871
 20
35.8526
 11
72.1791
 21
36.2216
  0
LINE
  8
0
 10
72.1791
 20
36.2216
 11
71.6289
 21
36.5241
  0
LINE
  8
0
 10
71.6289
 20
36.5241
 11
71.0451
 21
36.7553
  0
LINE
  8
0
 10
71.0451
 20
36.7553
 11
70.4369
 21
36.9114
  0
LINE
  8
0
 10
70.4369
 20
36.9114
 11
69.8139
 21
36.9901
  0
LINE
  8
0
 10
69.8139
 20
36.9901
 11
50.186
 21
36.9901
  0
LINE
  8
0
 10
50.186
 20
36.9901
 11
49.5631
 21
36.9114
  0
LINE
  8
0
 10
49.5631
 20
36.9114
 11
48.9549
 21
36.7553
  0
LINE
  8
0
 10
48.9549
 20
36.7553
 11
48.3711
 21
36.5241
  0
LINE
  8
0
 10
48.3711
 20
36.5241
 11
47.8209
 21
36.2216
  0
LINE
  8
0
 10
47.8209
 20
36.2216
 11
47.3129
 21
35.8526
  0
LINE
  8
0
 10
47.3129
 20
35.8526
 11
46.8551
 21
35.4227
  0
LINE
  8
0
 10
46.8551
 20
35.4227
 11
46.4549
 21
34.9389
  0
LINE
  8
0
 10
46.4549
 20
34.9389
 11
46.1185
 21
34.4088
  0
LINE
  8
0
 10
46.1185
 20
34.4088
 11
45.8511
 21
33.8406
  0
LINE
  8
0
 10
45.8511
 20
33.8406
 11
45.6571
 21
33.2434
  0
LINE
  8
0
 10
45.6571
 20
33.2434
 11
45.5394
 21
32.6267
  0
LINE
  8
0
 10
45.5394
 20
32.6267
 11
45.5
 21
32
  0
LINE
  8
0
 10
45.5
 20
32
 11
45.5
 21
31.4121
  0
LINE
  8
0
 10
45.5
 20
31.4121
 11
45.6387
 21
31.3572
  0
LINE
  8
0
 10
45.6387
 20
31.3572
 11
45.8037
 21
31.2665
  0
LINE
  8
0
 10
45.8037
 20
31.2665
 11
45.9561
 21
31.1558
  0
LINE
  8
0
 10
45.9561
 20
31.1558
 11
46.0934
 21
31.0268
  0
LINE
  8
0
 10
46.0934
 20
31.0268
 11
46.2135
 21
30.8817
  0
LINE
  8
0
 10
46.2135
 20
30.8817
 11
46.3145
 21
30.7226
  0
LINE
  8
0
 10
46.3145
 20
30.7226
 11
46.3947
 21
30.5522
  0
LINE
  8
0
 10
46.3947
 20
30.5522
 11
46.4529
 21
30.373
  0
LINE
  8
0
 10
46.4529
 20
30.373
 11
46.4882
 21
30.188
  0
LINE
  8
0
 10
46.4882
 20
30.188
 11
46.5
 21
30
  0
LINE
  8
0
 10
46.5
 20
30
 11
46.4882
 21
29.812
  0
LINE
  8
0
 10
46.4882
 20
29.812
 11
46.4529
 21
29.627
  0
LINE
  8
0
 10
46.4529
 20
29.627
 11
46.3947
 21
29.4478
  0
LINE
  8
0
 10
46.3947
 20
29.4478
 11
46.3145
 21
29.2774
  0
LINE
  8
0
 10
46.3145
 20
29.2774
 11
46.2135
 21
29.1183
  0
LINE
  8
0
 10
46.2135
 20
29.1183
 11
46.0934
 21
28.9732
  0
LINE
  8
0
 10
46.0934
 20
28.9732
 11
45.9561
 21
28.8442
  0
LINE
  8
0
 10
45.9561
 20
28.8442
 11
45.8037
 21
28.7335
  0
LINE
  8
0
 10
45.8037
 20
28.7335
 11
45.6387
 21
28.6427
  0
LINE
  8
0
 10
45.6387
 20
28.6427
 11
45.5
 21
28.5878
  0
LINE
  8
0
 10
45.5
 20
28.5878
 11
45.5
 21
28
  0
LINE
  8
0
 10
45.5
 20
28
 11
45.5394
 21
27.3733
  0
LINE
  8
0
 10
45.5394
 20
27.3733
 11
45.6571
 21
26.7565
  0
LINE
  8
0
 10
45.6571
 20
26.7565
 11
45.8511
 21
26.1594
  0
LINE
  8
0
 10
45.8511
 20
26.1594
 11
46.1185
 21
25.5912
  0
LINE
  8
0
 10
46.1185
 20
25.5912
 11
46.4549
 21
25.0611
  0
LINE
  8
0
 10
46.4549
 20
25.0611
 11
46.8551
 21
24.5773
  0
LINE
  8
0
 10
46.8551
 20
24.5773
 11
47.3129
 21
24.1474
  0
LINE
  8
0
 10
47.3129
 20
24.1474
 11
47.8209
 21
23.7784
  0
LINE
  8
0
 10
47.8209
 20
23.7784
 11
48.3711
 21
23.4759
  0
LINE
  8
0
 10
48.3711
 20
23.4759
 11
48.9549
 21
23.2447
  0
LINE
  8
0
 10
48.9549
 20
23.2447
 11
49.5631
 21
23.0886
  0
LINE
  8
0
 10
49.5631
 20
23.0886
 11
50.186
 21
23.0099
  0
LINE
  8
0
 10
50.186
 20
23.0099
 11
53
 21
23.0099
  0
LINE
  8
0
 10
53
 20
23.0099
 11
53
 21
-9.5
  0
LINE
  8
0
 10
53
 20
-9.5
 11
53.0394
 21
-10.1267
  0
LINE
  8
0
 10
53.0394
 20
-10.1267
 11
53.1571
 21
-10.7434
  0
LINE
  8
0
 10
67.3116
 20
27.0059
 11
66.9379
 21
27.0531
  0
LINE
  8
0
 10
66.9379
 20
27.0531
 11
66.573
 21
27.1468
  0
LINE
  8
0
 10
66.573
 20
27.1468
 11
66.2227
 21
27.2855
  0
LINE
  8
0
 10
66.2227
 20
27.2855
 11
65.8925
 21
27.467
  0
LINE
  8
0
 10
65.8925
 20
27.467
 11
65.5877
 21
27.6884
  0
LINE
  8
0
 10
65.5877
 20
27.6884
 11
65.3131
 21
27.9464
  0
LINE
  8
0
 10
65.3131
 20
27.9464
 11
65.073
 21
28.2366
  0
LINE
  8
0
 10
65.073
 20
28.2366
 11
64.8711
 21
28.5547
  0
LINE
  8
0
 10
64.8711
 20
28.5547
 11
64.7107
 21
28.8956
  0
LINE
  8
0
 10
64.7107
 20
28.8956
 11
64.5943
 21
29.2539
  0
LINE
  8
0
 10
64.5943
 20
29.2539
 11
64.5237
 21
29.624
  0
LINE
  8
0
 10
64.5237
 20
29.624
 11
64.5
 21
30
  0
LINE
  8
0
 10
64.5
 20
30
 11
64.5237
 21
30.376
  0
LINE
  8
0
 10
64.5237
 20
30.376
 11
64.5943
 21
30.7461
  0
LINE
  8
0
 10
64.5943
 20
30.7461
 11
64.7107
 21
31.1044
  0
LINE
  8
0
 10
64.7107
 20
31.1044
 11
64.8711
 21
31.4453
  0
LINE
  8
0
 10
64.8711
 20
31.4453
 11
65.073
 21
31.7634
  0
LINE
  8
0
 10
65.073
 20
31.7634
 11
65.3131
 21
32.0536
  0
LINE
  8
0
 10
65.3131
 20
32.0536
 11
65.5877
 21
32.3115
  0
LINE
  8
0
 10
65.5877
 20
32.3115
 11
65.8925
 21
32.533
  0
LINE
  8
0
 10
65.8925
 20
32.533
 11
66.2227
 21
32.7145
  0
LINE
  8
0
 10
66.2227
 20
32.7145
 11
66.573
 21
32.8532
  0
LINE
  8
0
 10
66.573
 20
32.8532
 11
66.9379
 21
32.9469
  0
LINE
  8
0
 10
66.9379
 20
32.9469
 11
67.3116
 21
32.9941
  0
LINE
  8
0
 10
67.3116
 20
32.9941
 11
67.6884
 21
32.9941
  0
LINE
  8
0
 10
67.6884
 20
32.9941
 11
68.0621
 21
32.9469
  0
LINE
  8
0
 10
68.0621
 20
32.9469
 11
68.427
 21
32.8532
  0
LINE
  8
0
 10
68.427
 20
32.8532
 11
68.7773
 21
32.7145
  0
LINE
  8
0
 10
68.7773
 20
32.7145
 11
69.1075
 21
32.533
  0
LINE
  8
0
 10
69.1075
 20
32.533
 11
69.4123
 21
32.3115
  0
LINE
  8
0
 10
69.4123
 20
32.3115
 11
69.6869
 21
32.0536
  0
LINE
  8
0
 10
69.6869
 20
32.0536
 11
69.927
 21
31.7634
  0
LINE
  8
0
 10
69.927
 20
31.7634
 11
70.1289
 21
31.4453
  0
LINE
  8
0
 10
70.1289
 20
31.4453
 11
70.2893
 21
31.1044
  0
LINE
  8
0
 10
70.2893
 20
31.1044
 11
70.4057
 21
30.7461
  0
LINE
  8
0
 10
70.4057
 20
30.7461
 11
70.4763
 21
30.376
  0
LINE
  8
0
 10
70.4763
 20
30.376
 11
70.5
 21
30
  0
LINE
  8
0
 10
70.5
 20
30
 11
70.4763
 21
29.624
  0
LINE
  8
0
 10
70.4763
 20
29.624
 11
70.4057
 21
29.2539
  0
LINE
  8
0
 10
70.4057
 20
29.2539
 11
70.2893
 21
28.8956
  0
LINE
  8
0
 10
70.2893
 20
28.8956
 11
70.1289
 21
28.5547
  0
LINE
  8
0
 10
70.1289
 20
28.5547
 11
69.927
 21
28.2366
  0
LINE
  8
0
 10
69.927
 20
28.2366
 11
69.6869
 21
27.9464
  0
LINE
  8
0
 10
69.6869
 20
27.9464
 11
69.4123
 21
27.6884
  0
LINE
  8
0
 10
69.4123
 20
27.6884
 11
69.1075
 21
27.467
  0
LINE
  8
0
 10
69.1075
 20
27.467
 11
68.7773
 21
27.2855
  0
LINE
  8
0
 10
68.7773
 20
27.2855
 11
68.427
 21
27.1468
  0
LINE
  8
0
 10
68.427
 20
27.1468
 11
68.0621
 21
27.0531
  0
LINE
  8
0
 10
68.0621
 20
27.0531
 11
67.6884
 21
27.0059
  0
LINE
  8
0
 10
67.6884
 20
27.0059
 11
67.3116
 21
27.0059
  0
LINE
  8
0
 10
52.3116
 20
27.0059
 11
51.9379
 21
27.0531
  0
LINE
  8
0
 10
51.9379
 20
27.0531
 11
51.5729
 21
27.1468
  0
LINE
  8
0
 10
51.5729
 20
27.1468
 11
51.2227
 21
27.2855
  0
LINE
  8
0
 10
51.2227
 20
27.2855
 11
50.8925
 21
27.467
  0
LINE
  8
0
 10
50.8925
 20
27.467
 11
50.5877
 21
27.6884
  0
LINE
  8
0
 10
50.5877
 20
27.6884
 11
50.3131
 21
27.9464
  0
LINE
  8
0
 10
50.3131
 20
27.9464
 11
50.0729
 21
28.2366
  0
LINE
  8
0
 10
50.0729
 20
28.2366
 11
49.8711
 21
28.5547
  0
LINE
  8
0
 10
49.8711
 20
28.5547
 11
49.7107
 21
28.8956
  0
LINE
  8
0
 10
49.7107
 20
28.8956
 11
49.5942
 21
29.2539
  0
LINE
  8
0
 10
49.5942
 20
29.2539
 11
49.5237
 21
29.624
  0
LINE
  8
0
 10
49.5237
 20
29.624
 11
49.5
 21
30
  0
LINE
  8
0
 10
49.5
 20
30
 11
49.5237
 21
30.376
  0
LINE
  8
0
 10
49.5237
 20
30.376
 11
49.5942
 21
30.7461
  0
LINE
  8
0
 10
49.5942
 20
30.7461
 11
49.7107
 21
31.1044
  0
LINE
  8
0
 10
49.7107
 20
31.1044
 11
49.8711
 21
31.4453
  0
LINE
  8
0
 10
49.8711
 20
31.4453
 11
50.0729
 21
31.7634
  0
LINE
  8
0
 10
50.0729
 20
31.7634
 11
50.3131
 21
32.0536
  0
LINE
  8
0
 10
50.3131
 20
32.0536
 11
50.5877
 21
32.3115
  0
LINE
  8
0
 10
50.5877
 20
32.3115
 11
50.8925
 21
32.533
  0
LINE
  8
0
 10
50.8925
 20
32.533
 11
51.2227
 21
32.7145
  0
LINE
  8
0
 10
51.2227
 20
32.7145
 11
51.5729
 21
32.8532
  0
LINE
  8
0
 10
51.5729
 20
32.8532
 11
51.9379
 21
32.9469
  0
LINE
  8
0
 10
51.9379
 20
32.9469
 11
52.3116
 21
32.9941
  0
LINE
  8
0
 10
52.3116
 20
32.9941
 11
52.6884
 21
32.9941
  0
LINE
  8
0
 10
52.6884
 20
32.9941
 11
53.0621
 21
32.9469
  0
LINE
  8
0
 10
53.0621
 20
32.9469
 11
53.427
 21
32.8532
  0
LINE
  8
0
 10
53.427
 20
32.8532
 11
53.7773
 21
32.7145
  0
LINE
  8
0
 10
53.7773
 20
32.7145
 11
54.1075
 21
32.533
  0
LINE
  8
0
 10
54.1075
 20
32.533
 11
54.4123
 21
32.3115
  0
LINE
  8
0
 10
54.4123
 20
32.3115
 11
54.6869
 21
32.0536
  0
LINE
  8
0
 10
54.6869
 20
32.0536
 11
54.927
 21
31.7634
  0
LINE
  8
0
 10
54.927
 20
31.7634
 11
55.1289
 21
31.4453
  0
LINE
  8
0
 10
55.1289
 20
31.4453
 11
55.2893
 21
31.1044
  0
LINE
  8
0
 10
55.2893
 20
31.1044
 11
55.4057
 21
30.7461
  0
LINE
  8
0
 10
55.4057
 20
30.7461
 11
55.4763
 21
30.376
  0
LINE
  8
0
 10
55.4763
 20
30.376
 11
55.5
 21
30
  0
LINE
  8
0
 10
55.5
 20
30
 11
55.4763
 21
29.624
  0
LINE
  8
0
 10
55.4763
 20
29.624
 11
55.4057
 21
29.2539
  0
LINE
  8
0
 10
55.4057
 20
29.2539
 11
55.2893
 21
28.8956
  0
LINE
  8
0
 10
55.2893
 20
28.8956
 11
55.1289
 21
28.5547
  0
LINE
  8
0
 10
55.1289
 20
28.5547
 11
54.927
 21
28.2366
  0
LINE
  8
0
 10
54.927
 20
28.2366
 11
54.6869
 21
27.9464
  0
LINE
  8
0
 10
54.6869
 20
27.9464
 11
54.4123
 21
27.6884
  0
LINE
  8
0
 10
54.4123
 20
27.6884
 11
54.1075
 21
27.467
  0
LINE
  8
0
 10
54.1075
 20
27.467
 11
53.7773
 21
27.2855
  0
LINE
  8
0
 10
53.7773
 20
27.2855
 11
53.427
 21
27.1468
  0
LINE
  8
0
 10
53.427
 20
27.1468
 11
53.0621
 21
27.0531
  0
LINE
  8
0
 10
53.0621
 20
27.0531
 11
52.6884
 21
27.0059
  0
LINE
  8
0
 10
52.6884
 20
27.0059
 11
52.3116
 21
27.0059
  0
LINE
  8
0
 10
59.887
 20
28.2036
 11
59.6627
 21
28.2319
  0
LINE
  8
0
 10
59.6627
 20
28.2319
 11
59.4438
 21
28.2881
  0
LINE
  8
0
 10
59.4438
 20
28.2881
 11
59.2336
 21
28.3713
  0
LINE
  8
0
 10
59.2336
 20
28.3713
 11
59.0355
 21
28.4802
  0
LINE
  8
0
 10
59.0355
 20
28.4802
 11
58.8526
 21
28.6131
  0
LINE
  8
0
 10
58.8526
 20
28.6131
 11
58.6879
 21
28.7678
  0
LINE
  8
0
 10
58.6879
 20
28.7678
 11
58.5438
 21
28.942
  0
LINE
  8
0
 10
58.5438
 20
28.942
 11
58.4226
 21
29.1328
  0
LINE
  8
0
 10
58.4226
 20
29.1328
 11
58.3264
 21
29.3374
  0
LINE
  8
0
 10
58.3264
 20
29.3374
 11
58.2565
 21
29.5524
  0
LINE
  8
0
 10
58.2565
 20
29.5524
 11
58.2142
 21
29.7744
  0
LINE
  8
0
 10
58.2142
 20
29.7744
 11
58.2
 21
30
  0
LINE
  8
0
 10
58.2
 20
30
 11
58.2142
 21
30.2256
  0
LINE
  8
0
 10
58.2142
 20
30.2256
 11
58.2565
 21
30.4476
  0
LINE
  8
0
 10
58.2565
 20
30.4476
 11
58.3264
 21
30.6626
  0
LINE
  8
0
 10
58.3264
 20
30.6626
 11
58.4226
 21
30.8672
  0
LINE
  8
0
 10
58.4226
 20
30.8672
 11
58.5438
 21
31.058
  0
LINE
  8
0
 10
58.5438
 20
31.058
 11
58.6879
 21
31.2322
  0
LINE
  8
0
 10
58.6879
 20
31.2322
 11
58.8526
 21
31.3869
  0
LINE
  8
0
 10
58.8526
 20
31.3869
 11
59.0355
 21
31.5198
  0
LINE
  8
0
 10
59.0355
 20
31.5198
 11
59.2336
 21
31.6287
  0
LINE
  8
0
 10
59.2336
 20
31.6287
 11
59.4438
 21
31.7119
  0
LINE
  8
0
 10
59.4438
 20
31.7119
 11
59.6627
 21
31.7681
  0
LINE
  8
0
 10
59.6627
 20
31.7681
 11
59.887
 21
31.7964
  0
LINE
  8
0
 10
59.887
 20
31.7964
 11
60.113
 21
31.7964
  0
LINE
  8
0
 10
60.113
 20
31.7964
 11
60.3373
 21
31.7681
  0
LINE
  8
0
 10
60.3373
 20
31.7681
 11
60.5562
 21
31.7119
  0
LINE
  8
0
 10
60.5562
 20
31.7119
 11
60.7664
 21
31.6287
  0
LINE
  8
0
 10
60.7664
 20
31.6287
 11
60.9645
 21
31.5198
  0
LINE
  8
0
 10
60.9645
 20
31.5198
 11
61.1474
 21
31.3869
  0
LINE
  8
0
 10
61.1474
 20
31.3869
 11
61.3121
 21
31.2322
  0
LINE
  8
0
 10
61.3121
 20
31.2322
 11
61.4562
 21
31.058
  0
LINE
  8
0
 10
61.4562
 20
31.058
 11
61.5773
 21
30.8672
  0
LINE
  8
0
 10
61.5773
 20
30.8672
 11
61.6736
 21
30.6626
  0
LINE
  8
0
 10
61.6736
 20
30.6626
 11
61.7434
 21
30.4476
  0
LINE
  8
0
 10
61.7434
 20
30.4476
 11
61.7858
 21
30.2256
  0
LINE
  8
0
 10
61.7858
 20
30.2256
 11
61.8
 21
30
  0
LINE
  8
0
 10
61.8
 20
30
 11
61.7858
 21
29.7744
  0
LINE
  8
0
 10
61.7858
 20
29.7744
 11
61.7434
 21
29.5524
  0
LINE
  8
0
 10
61.7434
 20
29.5524
 11
61.6736
 21
29.3374
  0
LINE
  8
0
 10
61.6736
 20
29.3374
 11
61.5773
 21
29.1328
  0
LINE
  8
0
 10
61.5773
 20
29.1328
 11
61.4562
 21
28.942
  0
LINE
  8
0
 10
61.4562
 20
28.942
 11
61.3121
 21
28.7678
  0
LINE
  8
0
 10
61.3121
 20
28.7678
 11
61.1474
 21
28.6131
  0
LINE
  8
0
 10
61.1474
 20
28.6131
 11
60.9645
 21
28.4802
  0
LINE
  8
0
 10
60.9645
 20
28.4802
 11
60.7664
 21
28.3713
  0
LINE
  8
0
 10
60.7664
 20
28.3713
 11
60.5562
 21
28.2881
  0
LINE
  8
0
 10
60.5562
 20
28.2881
 11
60.3373
 21
28.2319
  0
LINE
  8
0
 10
60.3373
 20
28.2319
 11
60.113
 21
28.2036
  0
LINE
  8
0
 10
60.113
 20
28.2036
 11
59.887
 21
28.2036
  0
LINE
  8
0
 10
59.887
 20
20.7036
 11
59.6627
 21
20.7319
  0
LINE
  8
0
 10
59.6627
 20
20.7319
 11
59.4438
 21
20.7881
  0
LINE
  8
0
 10
59.4438
 20
20.7881
 11
59.2336
 21
20.8713
  0
LINE
  8
0
 10
59.2336
 20
20.8713
 11
59.0355
 21
20.9802
  0
LINE
  8
0
 10
59.0355
 20
20.9802
 11
58.8526
 21
21.1131
  0
LINE
  8
0
 10
58.8526
 20
21.1131
 11
58.6879
 21
21.2678
  0
LINE
  8
0
 10
58.6879
 20
21.2678
 11
58.5438
 21
21.442
  0
LINE
  8
0
 10
58.5438
 20
21.442
 11
58.4226
 21
21.6328
  0
LINE
  8
0
 10
58.4226
 20
21.6328
 11
58.3264
 21
21.8374
  0
LINE
  8
0
 10
58.3264
 20
21.8374
 11
58.2565
 21
22.0524
  0
LINE
  8
0
 10
58.2565
 20
22.0524
 11
58.2142
 21
22.2744
  0
LINE
  8
0
 10
58.2142
 20
22.2744
 11
58.2
 21
22.5
  0
LINE
  8
0
 10
58.2
 20
22.5
 11
58.2142
 21
22.7256
  0
LINE
  8
0
 10
58.2142
 20
22.7256
 11
58.2565
 21
22.9476
  0
LINE
  8
0
 10
58.2565
 20
22.9476
 11
58.3264
 21
23.1626
  0
LINE
  8
0
 10
58.3264
 20
23.1626
 11
58.4226
 21
23.3672
  0
LINE
  8
0
 10
58.4226
 20
23.3672
 11
58.5438
 21
23.558
  0
LINE
  8
0
 10
58.5438
 20
23.558
 11
58.6879
 21
23.7322
  0
LINE
  8
0
 10
58.6879
 20
23.7322
 11
58.8526
 21
23.8869
  0
LINE
  8
0
 10
58.8526
 20
23.8869
 11
59.0355
 21
24.0198
  0
LINE
  8
0
 10
59.0355
 20
24.0198
 11
59.2336
 21
24.1287
  0
LINE
  8
0
 10
59.2336
 20
24.1287
 11
59.4438
 21
24.2119
  0
LINE
  8
0
 10
59.4438
 20
24.2119
 11
59.6627
 21
24.2681
  0
LINE
  8
0
 10
59.6627
 20
24.2681
 11
59.887
 21
24.2964
  0
LINE
  8
0
 10
59.887
 20
24.2964
 11
60.113
 21
24.2964
  0
LINE
  8
0
 10
60.113
 20
24.2964
 11
60.3373
 21
24.2681
  0
LINE
  8
0
 10
60.3373
 20
24.2681
 11
60.5562
 21
24.2119
  0
LINE
  8
0
 10
60.5562
 20
24.2119
 11
60.7664
 21
24.1287
  0
LINE
  8
0
 10
60.7664
 20
24.1287
 11
60.9645
 21
24.0198
  0
LINE
  8
0
 10
60.9645
 20
24.0198
 11
61.1474
 21
23.8869
  0
LINE
  8
0
 10
61.1474
 20
23.8869
 11
61.3121
 21
23.7322
  0
LINE
  8
0
 10
61.3121
 20
23.7322
 11
61.4562
 21
23.558
  0
LINE
  8
0
 10
61.4562
 20
23.558
 11
61.5773
 21
23.3672
  0
LINE
  8
0
 10
61.5773
 20
23.3672
 11
61.6736
 21
23.1626
  0
LINE
  8
0
 10
61.6736
 20
23.1626
 11
61.7434
 21
22.9476
  0
LINE
  8
0
 10
61.7434
 20
22.9476
 11
61.7858
 21
22.7256
  0
LINE
  8
0
 10
61.7858
 20
22.7256
 11
61.8
 21
22.5
  0
LINE
  8
0
 10
61.8
 20
22.5
 11
61.7858
 21
22.2744
  0
LINE
  8
0
 10
61.7858
 20
22.2744
 11
61.7434
 21
22.0524
  0
LINE
  8
0
 10
61.7434
 20
22.0524
 11
61.6736
 21
21.8374
  0
LINE
  8
0
 10
61.6736
 20
21.8374
 11
61.5773
 21
21.6328
  0
LINE
  8
0
 10
61.5773
 20
21.6328
 11
61.4562
 21
21.442
  0
LINE
  8
0
 10
61.4562
 20
21.442
 11
61.3121
 21
21.2678
  0
LINE
  8
0
 10
61.3121
 20
21.2678
 11
61.1474
 21
21.1131
  0
LINE
  8
0
 10
61.1474
 20
21.1131
 11
60.9645
 21
20.9802
  0
LINE
  8
0
 10
60.9645
 20
20.9802
 11
60.7664
 21
20.8713
  0
LINE
  8
0
 10
60.7664
 20
20.8713
 11
60.5562
 21
20.7881
  0
LINE
  8
0
 10
60.5562
 20
20.7881
 11
60.3373
 21
20.7319
  0
LINE
  8
0
 10
60.3373
 20
20.7319
 11
60.113
 21
20.7036
  0
LINE
  8
0
 10
60.113
 20
20.7036
 11
59.887
 21
20.7036
  0
LINE
  8
0
 10
53.5
 20
0.75
 11
53.5
 21
11.75
  0
LINE
  8
0
 10
53.5
 20
11.75
 11
66.5
 21
11.75
  0
LINE
  8
0
 10
66.5
 20
11.75
 11
66.5
 21
0.75
  0
LINE
  8
0
 10
66.5
 20
0.75
 11
53.5
 21
0.75
  0
ENDSEC
  0
SECTION
  2
OBJECTS
  0
DICTIONARY
  0
ENDSEC
  0
EOF
